<svg width="50" height="34" viewBox="0 0 50 34" fill="none" xmlns="http://www.w3.org/2000/svg">
<g id="Debit Card">
<g id="Red">
<path id="Vector" d="M35.7266 7.00022C35.5409 7.04834 35.2476 7.23123 35.0814 7.41411C34.6611 7.85688 34.6318 8.2034 34.6709 11.1584C34.7002 13.7669 34.7002 13.7669 35.3747 14.2578C35.6386 14.4503 35.7559 14.46 39.8615 14.46C43.928 14.46 44.0941 14.4503 44.4265 14.2675C45.0814 13.8921 45.1108 13.7284 45.1108 10.706C45.1108 7.68363 45.0814 7.51999 44.4265 7.1446C44.0941 6.96172 43.9084 6.95209 40.0765 6.93284C37.8771 6.92321 35.9123 6.95209 35.7266 7.00022Z" fill="#EC6B40"/>
</g>
<g id="Gray">
<path id="Vector_2" d="M2.00391 0.118328C1.35875 0.320465 0.654936 0.897991 0.30303 1.51402L0 2.04342V17.011V31.9787L0.224829 32.3925C0.527859 32.9508 1.08504 33.4898 1.67155 33.769L2.15054 34H24.9756H47.8006L48.3773 33.7112C49.0616 33.3743 49.5406 32.8449 49.8045 32.1519C50 31.6418 50 31.4204 50 17.011C50 2.47657 50 2.38032 49.7947 1.86054C49.5503 1.21563 48.9052 0.522598 48.26 0.233833L47.8006 0.0220718L25.1222 0.00282288C5.80645 -0.00680161 2.37537 0.00282288 2.00391 0.118328ZM8.39687 5.01769C9.26686 5.37384 9.50147 6.63478 8.78788 7.18343L8.55328 7.36631L8.88563 7.56845C9.17889 7.75133 9.28641 7.91496 9.47214 8.48287C9.64809 9.01227 9.00293 10.0037 8.37732 10.177C8.18182 10.2251 7.30205 10.2732 6.43206 10.2732H4.83871V7.57807V4.88294H6.45161C7.60508 4.88294 8.16227 4.92144 8.39687 5.01769ZM14.1838 7.43369C14.741 8.81013 15.2297 10.0133 15.259 10.0999C15.3079 10.254 15.2395 10.2732 14.6823 10.2732H14.0567L13.8221 9.6668L13.5777 9.07002H12.522H11.4663L11.2414 9.64755L11.0264 10.2251L10.4301 10.254C10.0978 10.2732 9.82405 10.2443 9.82405 10.2058C9.82405 10.1577 10.1564 9.28178 10.567 8.25185C10.9677 7.22193 11.4369 6.038 11.6031 5.6241L11.8964 4.87331L12.5318 4.90219L13.1672 4.93107L14.1838 7.43369ZM18.0352 6.55777L19.0616 8.2326L19.0909 6.55777L19.1105 4.88294H19.6481H20.1857V7.57807V10.2732H19.6188H19.042L18.0254 8.63687L17.0088 7.00054L16.9795 8.63687L16.9599 10.2732H16.3734H15.7869V7.57807V4.88294H16.4027L17.0088 4.89256L18.0352 6.55777ZM22.5318 5.98987V7.0968L23.5679 5.98987L24.6041 4.88294H25.3861H26.1681L25.1808 5.90324C24.6237 6.47114 24.2033 6.99092 24.2326 7.0583C24.262 7.12567 24.7019 7.81871 25.2297 8.608C25.7478 9.38766 26.1975 10.0903 26.217 10.1481C26.2561 10.2443 26.0802 10.2732 25.5327 10.2732H24.7996L24.0958 9.07002C23.7048 8.40586 23.3627 7.86683 23.3236 7.86683C23.2845 7.86683 23.0987 8.03047 22.8934 8.22298C22.5513 8.57912 22.5415 8.608 22.5122 9.40691L22.4829 10.2251H21.8964H21.3099L21.2805 7.54919L21.261 4.88294H21.8964H22.5318V5.98987ZM44.4282 7.07755C44.6432 7.19305 44.8583 7.41444 44.9951 7.67433C45.2004 8.08822 45.2102 8.1941 45.2102 10.7064C45.2102 13.2186 45.2004 13.3245 44.9951 13.7384C44.5846 14.5277 44.6725 14.5084 39.8827 14.5084C35.8651 14.5084 35.6696 14.4988 35.3568 14.3159C35.1808 14.21 34.956 13.9886 34.8485 13.8154C34.6628 13.517 34.653 13.3245 34.653 10.7064C34.653 8.08822 34.6628 7.89571 34.8485 7.59732C34.956 7.42406 35.1808 7.20268 35.3568 7.0968C35.6696 6.91391 35.8651 6.90429 39.8827 6.90429C43.7634 6.90429 44.1153 6.91391 44.4282 7.07755ZM6.9697 27.8108L6.99902 29.1391H4.83871H2.68817V27.7916V26.444L4.81916 26.4633L6.94037 26.4921L6.9697 27.8108ZM17.1359 27.8108L17.1652 29.1391H13.7341H10.3128V27.8589C10.3128 27.1467 10.3421 26.5403 10.3812 26.5114C10.4203 26.4729 11.9453 26.4536 13.7732 26.4633L17.1066 26.4921L17.1359 27.8108ZM26.7155 27.8108L26.7449 29.1391H22.9228H19.1105V27.8589C19.1105 27.1467 19.1398 26.5403 19.1789 26.5114C19.218 26.4729 20.9189 26.4536 22.9619 26.4633L26.6862 26.4921L26.7155 27.8108ZM38.0547 27.8108L38.0841 29.1391H33.6266H29.1789V27.8589C29.1789 27.1467 29.2082 26.5403 29.2473 26.5114C29.2766 26.4729 31.2708 26.4536 33.6657 26.4633L38.0254 26.4921L38.0547 27.8108ZM47.263 27.7916V29.1391H44.0371H40.8113V27.8589C40.8113 27.1467 40.8407 26.5403 40.8798 26.5114C40.9091 26.4729 42.3656 26.444 44.1056 26.444H47.263V27.7916Z" fill="#40406B"/>
<path id="Vector_3" d="M6.01172 6.42247V7H6.68621C7.68327 7 8.0645 6.82674 8.0645 6.35509C8.0645 5.95082 7.8299 5.84494 6.88171 5.84494H6.01172V6.42247Z" fill="#40406B"/>
<path id="Vector_4" d="M6.01172 8.64667V9.33008L6.93058 9.29158C7.96675 9.2627 8.26001 9.10869 8.26001 8.61779C8.26001 8.09802 7.9863 7.96326 6.94036 7.96326H6.01172V8.64667Z" fill="#40406B"/>
<path id="Vector_5" d="M12.1898 7.0874C12.0138 7.55905 11.877 7.96332 11.877 8.00182C11.877 8.03069 12.1604 8.05957 12.5123 8.05957C12.8642 8.05957 13.1477 8.03069 13.1477 7.98257C13.1477 7.94406 13.0011 7.53979 12.8251 7.07777L12.5026 6.23073L12.1898 7.0874Z" fill="#40406B"/>
</g>
<g id="LightGray">
<path id="Vector_6" d="M4.93555 7.5211V10.1777H6.53867C7.43799 10.1777 8.26888 10.1296 8.42528 10.0719C9.1291 9.81197 9.54943 9.02268 9.34415 8.33927C9.2464 8.012 8.84562 7.56923 8.53281 7.45372C8.44483 7.41522 8.48393 7.33822 8.66966 7.17459C9.17797 6.73181 9.2855 6.13503 8.94337 5.58638C8.61101 5.03773 8.29821 4.9511 6.5289 4.90297L4.93555 4.85485V7.5211ZM7.96585 5.94252C8.07338 6.04841 8.16135 6.24091 8.16135 6.37567C8.16135 6.86657 7.8681 7.00133 6.84171 7.00133H5.91306V6.37567V5.75002H6.84171C7.64327 5.75002 7.79967 5.77889 7.96585 5.94252ZM8.17113 8.14676C8.40573 8.43552 8.40573 8.8783 8.17113 9.10931C7.95607 9.32107 7.21316 9.43657 6.4507 9.38845L5.96194 9.35957L5.93261 8.60878L5.90329 7.84837L6.93946 7.88687C7.89742 7.91575 7.99518 7.935 8.17113 8.14676Z" fill="#ECECEC"/>
<path id="Vector_7" d="M11.8867 5.09548C11.8378 5.22061 11.3784 6.39492 10.8603 7.70399C10.3422 9.01305 9.92188 10.1104 9.92188 10.1296C9.92188 10.1585 10.1565 10.1777 10.4497 10.1777H10.9678L11.1829 9.60021L11.3979 9.01305L12.5318 9.04193L13.656 9.0708L13.871 9.60021L14.0861 10.1296L14.6433 10.1585C14.9463 10.1777 15.2005 10.1681 15.2005 10.1489C15.2005 10.1296 14.7215 8.94567 14.135 7.5211L13.0695 4.93185L12.5221 4.90297C12.0235 4.8741 11.9649 4.89335 11.8867 5.09548ZM12.9424 7.19384C13.1086 7.63661 13.2454 8.03125 13.2454 8.07938C13.2454 8.11788 12.9131 8.15638 12.5123 8.15638C12.1115 8.15638 11.7792 8.11788 11.7792 8.06976C11.7792 8.02163 11.916 7.61736 12.0724 7.17459C12.2386 6.73181 12.395 6.30829 12.4243 6.23129C12.4927 6.03878 12.5612 6.16391 12.9424 7.19384Z" fill="#ECECEC"/>
<path id="Vector_8" d="M15.8848 7.53073V10.1777H16.3735H16.8623L16.8818 8.44515L16.9112 6.71256L17.9864 8.44515L19.0617 10.1681L19.5798 10.1777H20.0881V7.53073V4.88372H19.6482H19.2083V6.67406C19.2083 7.65586 19.1692 8.43552 19.1301 8.40665C19.091 8.37777 18.5729 7.57886 17.9767 6.62593L16.9112 4.89335L16.4028 4.88372H15.8848V7.53073Z" fill="#ECECEC"/>
<path id="Vector_9" d="M21.3574 7.53073V10.1777H21.8951H22.4327V9.37882V8.57991L22.9019 8.13713L23.3613 7.68474L24.0945 8.92642L24.8276 10.1777H25.4923C26.0006 10.1777 26.1375 10.1489 26.0886 10.0526C26.0397 9.99485 25.5998 9.31144 25.0915 8.55103C24.5832 7.79062 24.1531 7.10721 24.1238 7.0302C24.0945 6.9532 24.4855 6.49118 25.0818 5.8944L26.0886 4.88372H25.3946H24.7005L23.5862 6.08691L22.4816 7.28047L22.4522 6.08691L22.4229 4.88372H21.8951H21.3574V7.53073Z" fill="#ECECEC"/>
<path id="Vector_10" d="M2.6875 27.8402V29.1396H4.78916H6.89082V27.8402V26.5408H4.78916H2.6875V27.8402Z" fill="#ECECEC"/>
<path id="Vector_11" d="M10.4102 27.8402V29.1396H13.7337H17.0573V27.8402V26.5408H13.7337H10.4102V27.8402Z" fill="#ECECEC"/>
<path id="Vector_12" d="M19.1094 27.8402V29.1396H22.8728H26.6363V27.8402V26.5408H22.8728H19.1094V27.8402Z" fill="#ECECEC"/>
<path id="Vector_13" d="M29.1777 27.8402V29.1396H33.5766H37.9754V27.8402V26.5408H33.5766H29.1777V27.8402Z" fill="#ECECEC"/>
<path id="Vector_14" d="M40.9082 27.8402V29.1396H44.0851H47.2621V27.8402V26.5408H44.0851H40.9082V27.8402Z" fill="#ECECEC"/>
</g>
</g>
</svg>
