<svg width="40" height="41" viewBox="0 0 40 41" fill="none" xmlns="http://www.w3.org/2000/svg">
<g id="emojione:flag-for-mexico">
<path id="Vector" d="M38.75 20.5C38.75 12.3125 33.5625 5.375 26.25 2.8125V38.1875C33.5625 35.625 38.75 28.6875 38.75 20.5Z" fill="#ED4C5C"/>
<path id="Vector_2" d="M1.25 20.5C1.25 28.6875 6.5 35.625 13.75 38.1875V2.8125C6.5 5.375 1.25 12.3125 1.25 20.5Z" fill="#75A843"/>
<path id="Vector_3" d="M26.25 2.8125C24.3125 2.125 22.1875 1.75 20 1.75C17.8125 1.75 15.6875 2.125 13.75 2.8125V38.1875C15.6875 38.875 17.8125 39.25 20 39.25C22.1875 39.25 24.3125 38.875 26.25 38.1875V2.8125Z" fill="white"/>
<path id="Vector_4" d="M25.4374 20.3125C25.3749 20.125 25.3124 20.375 25.3124 20.4375C25.3124 20.25 25.2499 20.125 25.1249 19.9375C24.9374 20.125 24.8749 20.375 24.8749 20.625C24.8124 20.4375 24.7499 20.25 24.5624 20.1875C24.6874 20.375 24.6249 20.5 24.6249 20.6875C24.6249 20.9375 24.8124 21.125 24.8124 21.375C24.8124 21.625 24.6874 21.8125 24.4999 22V21.8125C23.8749 22.0625 23.9999 22.375 23.9999 22.9375C23.9999 23.5 23.6874 23.375 23.3124 23.6875C23.3749 23.5625 23.3749 23.375 23.3124 23.25C23.3124 23.625 22.8124 23.625 22.7499 23.9375C22.6874 24.0625 22.7499 24.3125 22.5624 24.375C22.4374 24.4375 22.2499 24.5625 22.2499 24.6875C22.1249 24.625 21.9999 24.625 21.8124 24.625C21.8749 24.5625 21.9374 24.5625 21.9999 24.5C21.3749 24.1875 21.1874 24.875 20.6249 24.9375C20.4374 24.9375 19.9999 24.6875 19.9999 24.9375C20.5624 24.9375 20.8124 25.4375 21.2499 25.4375C21.6249 25.4375 21.9374 25.125 22.3124 25.125C22.2499 25.125 22.0624 25 21.8749 25C22.1874 24.8125 22.3749 24.4375 22.7499 24.4375C23.3749 24.4375 23.6874 24.3125 23.8749 23.6875C23.8124 23.6875 23.7499 23.6875 23.6874 23.75C23.6874 23.5 23.9374 23.1875 24.1874 23.0625C24.8124 22.9375 24.7499 22.4375 25.1249 22C24.9999 22 24.8749 22.0625 24.7499 22.1875C24.7499 21.8125 24.6874 21.4375 24.9999 21.1875C25.6249 20.875 25.5624 20.75 25.4374 20.3125ZM14.5624 20.3125C14.4374 20.8125 14.3749 20.9375 14.8749 21.25C15.2499 21.5 15.1249 21.875 15.1249 22.25C14.9999 22.125 14.9374 22.0625 14.7499 22.0625C15.1249 22.4375 15.0624 23 15.6874 23.125C15.8749 23.25 16.1874 23.5625 16.1874 23.8125C16.1249 23.8125 16.0624 23.75 15.9999 23.75C16.1874 24.375 16.4999 24.5 17.1249 24.5C17.4999 24.5 17.6874 24.875 17.9999 25.0625C17.8124 25.0625 17.6249 25.125 17.5624 25.1875C17.9374 25.1875 18.2499 25.5625 18.6249 25.5C19.0624 25.5 19.3749 25 19.8749 25C19.8749 24.75 19.4374 25 19.2499 25C18.7499 24.875 18.5624 24.25 17.8749 24.5C17.9374 24.5625 17.9999 24.625 18.0624 24.625C17.9374 24.625 17.7499 24.5625 17.6249 24.6875C17.5624 24.5625 17.4374 24.4375 17.3124 24.375C17.1874 24.25 17.1874 24.0625 17.1249 23.9375C16.9999 23.625 16.5624 23.5625 16.5624 23.25C16.4999 23.375 16.4999 23.5625 16.5624 23.6875C16.1874 23.375 15.8749 23.5 15.8749 22.9375C15.8749 22.4375 15.9999 22.0625 15.3749 21.8125V22C15.1874 21.8125 15.0624 21.6875 15.0624 21.375C15.0624 21.125 15.3124 20.9375 15.2499 20.6875C15.2499 20.5 15.1874 20.375 15.3124 20.1875C15.1249 20.25 15.0624 20.4375 14.9999 20.625C14.9999 20.375 14.9374 20.125 14.7499 19.9375C14.6874 20.0625 14.6249 20.25 14.5624 20.4375C14.6249 20.3125 14.5624 20.125 14.5624 20.3125Z" fill="#75A843"/>
<path id="Vector_5" d="M21.6875 24.0625C21.5625 24.0625 21.5 23.9375 21.4375 23.875C21.4375 23.75 21.9375 23.625 22 23.625V23.5C21.1875 23.75 18.75 23.9375 18.25 23.0625C18 23.4375 17.5625 23.1875 17.125 22.875C17.1875 23 17.4375 23.625 17.4375 23.5625C17.5625 23.625 18.375 23.8125 18.375 24L18.1875 24.1875C19.5 24.625 20.3125 24.75 21.6875 24.0625Z" fill="#428BC1"/>
<path id="Vector_6" d="M20.875 24.0625C20.9375 24 20.9375 23.9375 20.9375 23.8125L20.875 23.625C21 23.5 20.875 23.1875 20.6875 23.25C20.5625 23.3125 20.625 23.3125 20.5 23.25C20.4375 23.25 20.4375 23.1875 20.375 23.1875H19.25C19.125 23.1875 19.125 23.125 19 23.125C18.875 23.0625 18.8125 23.1875 18.75 23.25C18.75 23.375 18.8125 23.375 18.8125 23.4375C18.8125 23.5 18.75 23.5625 18.75 23.6875C18.75 23.8125 18.8125 23.875 18.875 23.9375C18.625 24.125 18.875 24.4375 19.125 24.25C19.1875 24.375 19.375 24.375 19.5625 24.375H20.25C20.375 24.375 20.625 24.4375 20.6875 24.25C20.875 24.5625 21.125 24.1875 20.875 24.0625Z" fill="#ED4C5C"/>
<path id="Vector_7" d="M22.875 22.4375C22.375 21.8125 22.125 22.75 21.5625 22.6875C21.6875 21.9375 20.5625 22.1875 20.25 22.375C20.3125 22.3125 20.375 22.1875 20.4375 22.0625C20.1875 22.0625 19.875 22.1875 19.6875 22C19.3125 21.75 18.8125 21.625 18.5 22.0625C18.25 21.6875 17.5625 21.3125 17.1875 21.6875C17.1875 21.3125 16.8125 20.75 16.375 20.8125C15.875 20.875 16.0625 21.5 16.3125 21.75C16.5 21.9375 16.75 22 17 22C17 22.125 17.0625 22.1875 17.125 22.25C17.4375 22.5 18.0625 22.5625 18.375 22.3125C18.375 22.9375 19.625 22.9375 19.9375 22.625C19.8125 22.9375 19.6875 23.5625 20.125 23.5625C20.5 23.5625 20.375 23.1875 20.6875 23.0625C20.9375 22.9375 21.25 22.875 21.5 23C21.9375 23.25 23.3125 23.1875 22.875 22.4375Z" fill="#428BC1"/>
<g id="Group">
<path id="Vector_8" d="M17.75 20.875C17.6875 20.75 17.5625 20.625 17.5625 20.625C17.3125 20.6875 17.3125 20.5 17.25 20.3125C17.1875 20 16.75 19.875 16.75 19.625C16.75 19.375 17 19.125 16.8125 18.875C16.625 18.625 16.3125 18.5 16.3125 18.625C16.25 18.75 16.5625 18.75 16.5625 19.0625C16.5625 19.4375 16.1875 19.75 16.625 20.0625C16.875 20.4375 16.875 21.125 17.3125 21.125C17.5 21.125 17.6875 21.0625 17.75 20.875Z" fill="#75A843"/>
<path id="Vector_9" d="M18.6874 20.5625C18.5624 20.3125 18.6874 19.9375 18.4374 19.75C18.1249 19.5 17.4999 20 17.4374 19.375C17.4374 19.25 18.1249 18.5 18.2499 18.4375C18.4374 18.1875 18.3749 17.75 18.1874 17.625C17.9374 17.5 17.8749 17.625 17.6874 17.875C17.7499 17.9375 17.9999 18.0625 17.9999 18.125C17.8124 18.5625 17.2499 18.625 17.1249 19.0625C16.9999 19.375 17.0624 19.875 17.3749 20.0625C17.5624 20.1875 17.6874 20.1875 17.8749 20.1875C18.4374 20.125 18.1249 20.25 18.1874 20.375C18.1874 20.5 18.3749 20.9375 18.6874 20.5625ZM16.8124 17.5C16.8124 17.875 17.1874 17.8125 17.4374 17.75C17.4374 17.625 17.4374 17.5 17.4999 17.375C17.3749 17.4375 17.1874 17.4375 17.1249 17.375C16.9374 17.25 17.5624 17 17.4999 17C17.4999 17 16.8749 17.3125 17.1249 16.9375C17.1874 16.8125 17.3124 16.6875 17.3749 16.5625C17.4374 16.4375 17.1874 16.5625 17.1874 16.5625C17.1249 16.5625 17.0624 16.5625 16.9999 16.625C16.6249 16.9375 16.7499 17.125 16.8124 17.5Z" fill="#75A843"/>
</g>
<path id="Vector_10" d="M23.4376 17.5C23.1251 17.0625 21.9376 15.625 20.2501 15.5C20.0626 15.5 19.5626 15.6875 19.3751 15.75C18.8126 16.125 20.0001 16.4375 20.0626 16.6875C20.0626 16.8125 20.1251 16.875 20.1251 17C19.9376 16.6875 19.7501 16.5 19.6876 16.375C19.3751 16.5 18.8751 16.3125 18.8126 16C18.7501 16.125 18.7501 16.1875 18.6251 16.3125C18.6251 16.125 18.5626 16.125 18.5001 16C18.5001 16.1875 18.5001 16.4375 18.3126 16.5C18.3751 16.375 18.3126 16.25 18.2501 16.125C18.2501 16.3125 18.2501 16.4375 18.1251 16.5625C18.1876 16.4375 18.0626 16.375 18.0626 16.25C18.0001 16.75 17.3126 16.9375 18.0001 17.125C18.2501 17.1875 18.3751 17.125 18.6251 17.25C18.6876 17.3125 18.8126 17.4375 18.8126 17.375C18.8126 17.4375 18.5626 17.6875 18.7501 17.75C18.6876 17.8125 18.5001 18.1875 18.5001 18.1875C18.6876 18.1875 18.5626 18.3125 18.4376 18.4375C18.2501 18.75 18.4376 19.0625 18.5001 19.4375C18.5001 19.3125 18.6876 19.5 18.6876 19.6875C18.6876 19.9375 18.9376 20.0625 19.0001 20.25C18.6876 19.9375 18.6251 20.25 19.0001 20.4375C18.6876 20.4375 18.6251 20.625 18.9376 20.75C18.1876 20.75 18.8126 21.0625 18.9376 21.125C19.4376 21.25 19.8126 20.875 19.8126 20.8125C19.8126 20.8125 20.8126 21.8125 20.8751 21.8125C20.9376 21.8125 21.4376 21.5625 21.5626 21.6875C21.6876 21.875 21.8126 21.6875 21.9376 21.75C22.0626 21.875 22.5626 21.75 22.6876 21.6875C22.7501 21.6875 23.3751 21.5625 23.2501 21.4375C22.9376 21.1875 22.5626 20.9375 22.2501 20.6875C21.9376 20.4375 21.6251 20.25 21.3751 20C21.2501 19.875 21.2501 19.625 21.1876 19.4375C21.7501 20 22.3126 20.3125 22.2501 19.25C22.6251 19.5625 23.3751 21.3125 23.4376 21.3125C23.6251 21.3125 23.4376 19.4375 23.4376 19.25C23.6876 19.5 23.6876 21.5625 23.7501 21.5625C24.0626 21.625 24.5001 18.875 23.4376 17.5Z" fill="#89664C"/>
<path id="Vector_11" d="M18.9375 20.6875C18.875 20.6875 18.5625 20.25 18.5625 20.1875C18.75 20.9375 18 20.5 18.1875 20.1875C17.9375 20.125 17.3125 20.5 17.5625 20.875C17.4375 21.125 18.4375 20.9375 18.5 20.8125C18.75 21.375 19.375 20.75 18.9375 20.6875ZM21.875 22.5625C22.1875 22.125 20.875 22 21 21.5C20.8125 21.625 20.5625 22.0625 20.3125 21.9375C20.1875 21.875 19.6875 22.1875 19.9375 22.375C19.9375 22.125 20.0625 22.3125 20.25 22.25C20.1875 22.4375 20 22.625 20.3125 22.75C20.1875 22.375 20.6875 22.5625 20.625 22.375C20.5 22.25 21.0625 22.25 21.125 22.25C21.3125 22.25 21.9375 22.4375 21.6875 22.625C21.6875 22.625 21.8125 22.625 21.875 22.5625ZM17.6875 17.1875C17.625 17.3125 17.375 17.5 17.375 17.6875C17.375 17.8125 17.6875 18.125 17.8125 17.9375C17.4375 17.6875 17.875 17.5 18.0625 17.5C18.125 17.5 18.125 17.625 18.125 17.625C18.1875 17.6875 18.6875 17.5 18.625 17.375C18.6875 17.125 17.875 17.125 17.6875 17.1875Z" fill="#FFCE31"/>
</g>
</svg>
