<svg width="12" height="12" viewBox="0 0 12 12" fill="none" xmlns="http://www.w3.org/2000/svg">
<g id="Group">
<path id="Vector" d="M4.1215 3.66996L0.931497 4.13246L0.874997 4.14396C0.789467 4.16667 0.711495 4.21167 0.649044 4.27436C0.586592 4.33706 0.541899 4.41521 0.519528 4.50082C0.497158 4.58644 0.497911 4.67647 0.521711 4.7617C0.545511 4.84693 0.591506 4.92432 0.654997 4.98596L2.966 7.23546L2.421 10.413L2.4145 10.468C2.40926 10.5564 2.42763 10.6447 2.46772 10.7237C2.50781 10.8027 2.56819 10.8697 2.64267 10.9177C2.71714 10.9657 2.80304 10.9931 2.89157 10.997C2.9801 11.0009 3.06808 10.9812 3.1465 10.94L5.9995 9.43996L8.846 10.94L8.896 10.963C8.97853 10.9955 9.06822 11.0054 9.15588 10.9918C9.24353 10.9782 9.32599 10.9416 9.39479 10.8856C9.4636 10.8296 9.51627 10.7563 9.54741 10.6733C9.57856 10.5902 9.58704 10.5004 9.572 10.413L9.0265 7.23546L11.3385 4.98546L11.3775 4.94296C11.4332 4.87435 11.4697 4.79219 11.4834 4.70486C11.497 4.61753 11.4872 4.52815 11.455 4.44583C11.4229 4.3635 11.3695 4.29118 11.3002 4.23622C11.231 4.18126 11.1485 4.14563 11.061 4.13296L7.871 3.66996L6.445 0.779961C6.40374 0.696229 6.33986 0.625719 6.26059 0.576414C6.18133 0.527108 6.08985 0.500977 5.9965 0.500977C5.90315 0.500977 5.81167 0.527108 5.7324 0.576414C5.65314 0.625719 5.58926 0.696229 5.548 0.779961L4.1215 3.66996Z" fill="#FBA91D"/>
</g>
</svg>
