<svg width="18" height="18" viewBox="0 0 18 18" fill="none" xmlns="http://www.w3.org/2000/svg">
<g id="ei:plus">
<path id="Vector" d="M8.99988 15.1199C5.61588 15.1199 2.87988 12.3839 2.87988 8.99988C2.87988 5.61588 5.61588 2.87988 8.99988 2.87988C12.3839 2.87988 15.1199 5.61588 15.1199 8.99988C15.1199 12.3839 12.3839 15.1199 8.99988 15.1199ZM8.99988 3.59988C6.01188 3.59988 3.59988 6.01188 3.59988 8.99988C3.59988 11.9879 6.01188 14.3999 8.99988 14.3999C11.9879 14.3999 14.3999 11.9879 14.3999 8.99988C14.3999 6.01188 11.9879 3.59988 8.99988 3.59988Z" fill="#999999"/>
<path id="Vector_2" d="M5.75977 8.63989H12.2398V9.35989H5.75977V8.63989Z" fill="#999999"/>
<path id="Vector_3" d="M8.64014 5.76001H9.36014V12.24H8.64014V5.76001Z" fill="#999999"/>
</g>
</svg>
