<svg width="18" height="18" viewBox="0 0 18 18" fill="none" xmlns="http://www.w3.org/2000/svg">
<g id="mdi:administrator-outline">
<path id="Vector" d="M9 0.75L15.75 3.75V8.25C15.75 12.4125 12.87 16.305 9 17.25C5.13 16.305 2.25 12.4125 2.25 8.25V3.75L9 0.75ZM9 2.385L3.75 4.725V8.415C3.75 11.655 6.1875 15 9 15.75C11.8125 15 14.25 11.655 14.25 8.415V4.725L9 2.385ZM12 10.5V11.6925C11.97 11.8575 11.835 11.97 11.6475 12H6.3525C6.165 11.97 6.03 11.8575 6 11.6925V10.5H12ZM12.75 6L12 9.75H6L5.25 6L7.2525 8.0025L9 6.255L10.7475 8.0025L12.75 6Z" fill="#999999"/>
</g>
</svg>
