<svg width="24" height="24" viewBox="0 0 24 24" fill="none" xmlns="http://www.w3.org/2000/svg">
<g id="fluent:camera-add-48-filled">
<path id="Vector" d="M8.4 4.593C8.58403 4.26174 8.8533 3.98572 9.1799 3.79354C9.5065 3.60136 9.87855 3.50001 10.2575 3.5H13.7425C14.1214 3.50001 14.4935 3.60136 14.8201 3.79354C15.1467 3.98572 15.416 4.26174 15.6 4.593L16.243 5.75H18.125C18.8875 5.75 19.6188 6.0529 20.1579 6.59207C20.6971 7.13124 21 7.8625 21 8.625V12.022C19.9554 11.3528 18.7405 10.9981 17.5 11C16.9095 11 16.337 11.079 15.793 11.2265C15.5709 10.5657 15.1799 9.9745 14.6589 9.51138C14.1379 9.04826 13.5049 8.72934 12.8227 8.58623C12.1404 8.44312 11.4326 8.4808 10.7694 8.69551C10.1062 8.91023 9.51064 9.29454 9.04173 9.81034C8.57281 10.3262 8.24684 10.9555 8.09611 11.6361C7.94538 12.3168 7.97514 13.0249 8.18243 13.6905C8.38972 14.356 8.76735 14.9559 9.27788 15.4305C9.78841 15.9052 10.4141 16.2382 11.093 16.3965C10.8858 17.6118 11.0262 18.861 11.498 20H5.875C5.1125 20 4.38124 19.6971 3.84207 19.1579C3.3029 18.6188 3 17.8875 3 17.125V8.625C3 7.8625 3.3029 7.13124 3.84207 6.59207C4.38124 6.0529 5.1125 5.75 5.875 5.75H7.757L8.4 4.593ZM12 9.75C11.3203 9.74905 10.6643 9.99988 10.1585 10.4541C9.65284 10.9083 9.33328 11.5337 9.26152 12.2097C9.18976 12.8856 9.37088 13.5642 9.76994 14.1145C10.169 14.6647 10.7577 15.0477 11.4225 15.1895C12.0081 13.6553 13.1508 12.3985 14.6225 11.67C14.4459 11.113 14.0965 10.6266 13.625 10.2814C13.1535 9.9362 12.5844 9.75007 12 9.75ZM17.5 23C20.5375 23 23 20.5375 23 17.5C23 14.4625 20.5375 12 17.5 12C14.4625 12 12 14.4625 12 17.5C12 20.5375 14.4625 23 17.5 23ZM17.5 14C17.6326 14 17.7598 14.0527 17.8536 14.1464C17.9473 14.2402 18 14.3674 18 14.5V17H20.5C20.6326 17 20.7598 17.0527 20.8536 17.1464C20.9473 17.2402 21 17.3674 21 17.5C21 17.6326 20.9473 17.7598 20.8536 17.8536C20.7598 17.9473 20.6326 18 20.5 18H18V20.5C18 20.6326 17.9473 20.7598 17.8536 20.8536C17.7598 20.9473 17.6326 21 17.5 21C17.3674 21 17.2402 20.9473 17.1464 20.8536C17.0527 20.7598 17 20.6326 17 20.5V18H14.5C14.3674 18 14.2402 17.9473 14.1464 17.8536C14.0527 17.7598 14 17.6326 14 17.5C14 17.3674 14.0527 17.2402 14.1464 17.1464C14.2402 17.0527 14.3674 17 14.5 17H17V14.5C17 14.3674 17.0527 14.2402 17.1464 14.1464C17.2402 14.0527 17.3674 14 17.5 14Z" fill="white"/>
</g>
</svg>
