<svg width="18" height="18" viewBox="0 0 18 18" fill="none" xmlns="http://www.w3.org/2000/svg">
<g id="ph:car-light">
<path id="Vector" d="M16.875 8.01562H16.0242L14.0337 3.53742C13.9563 3.36351 13.8302 3.21576 13.6706 3.11205C13.511 3.00835 13.3247 2.95315 13.1344 2.95312H4.86562C4.67528 2.95315 4.48903 3.00835 4.32942 3.11205C4.16981 3.21576 4.04369 3.36351 3.96633 3.53742L1.97578 8.01562H1.125C1.01311 8.01562 0.905806 8.06007 0.826689 8.13919C0.747572 8.21831 0.703125 8.32561 0.703125 8.4375C0.703125 8.54939 0.747572 8.65669 0.826689 8.73581C0.905806 8.81493 1.01311 8.85938 1.125 8.85938H1.82812V14.625C1.82812 14.8861 1.93184 15.1365 2.11644 15.3211C2.30105 15.5057 2.55143 15.6094 2.8125 15.6094H4.5C4.76107 15.6094 5.01145 15.5057 5.19606 15.3211C5.38066 15.1365 5.48438 14.8861 5.48438 14.625V13.3594H12.5156V14.625C12.5156 14.8861 12.6193 15.1365 12.8039 15.3211C12.9885 15.5057 13.2389 15.6094 13.5 15.6094H15.1875C15.4486 15.6094 15.699 15.5057 15.8836 15.3211C16.0682 15.1365 16.1719 14.8861 16.1719 14.625V8.85938H16.875C16.9869 8.85938 17.0942 8.81493 17.1733 8.73581C17.2524 8.65669 17.2969 8.54939 17.2969 8.4375C17.2969 8.32561 17.2524 8.21831 17.1733 8.13919C17.0942 8.06007 16.9869 8.01562 16.875 8.01562ZM4.73695 3.88055C4.74799 3.85563 4.76602 3.83446 4.78887 3.81961C4.81171 3.80475 4.83838 3.79686 4.86562 3.79688H13.1344C13.1616 3.79686 13.1883 3.80475 13.2111 3.81961C13.234 3.83446 13.252 3.85563 13.263 3.88055L15.101 8.01562H2.89898L4.73695 3.88055ZM4.64062 14.625C4.64062 14.6623 4.62581 14.6981 4.59944 14.7244C4.57306 14.7508 4.5373 14.7656 4.5 14.7656H2.8125C2.7752 14.7656 2.73944 14.7508 2.71306 14.7244C2.68669 14.6981 2.67188 14.6623 2.67188 14.625V13.3594H4.64062V14.625ZM15.1875 14.7656H13.5C13.4627 14.7656 13.4269 14.7508 13.4006 14.7244C13.3742 14.6981 13.3594 14.6623 13.3594 14.625V13.3594H15.3281V14.625C15.3281 14.6623 15.3133 14.6981 15.2869 14.7244C15.2606 14.7508 15.2248 14.7656 15.1875 14.7656ZM15.3281 12.5156H2.67188V8.85938H15.3281V12.5156ZM4.07812 10.6875C4.07812 10.5756 4.12257 10.4683 4.20169 10.3892C4.28081 10.3101 4.38811 10.2656 4.5 10.2656H5.625C5.73689 10.2656 5.84419 10.3101 5.92331 10.3892C6.00243 10.4683 6.04688 10.5756 6.04688 10.6875C6.04688 10.7994 6.00243 10.9067 5.92331 10.9858C5.84419 11.0649 5.73689 11.1094 5.625 11.1094H4.5C4.38811 11.1094 4.28081 11.0649 4.20169 10.9858C4.12257 10.9067 4.07812 10.7994 4.07812 10.6875ZM11.9531 10.6875C11.9531 10.5756 11.9976 10.4683 12.0767 10.3892C12.1558 10.3101 12.2631 10.2656 12.375 10.2656H13.5C13.6119 10.2656 13.7192 10.3101 13.7983 10.3892C13.8774 10.4683 13.9219 10.5756 13.9219 10.6875C13.9219 10.7994 13.8774 10.9067 13.7983 10.9858C13.7192 11.0649 13.6119 11.1094 13.5 11.1094H12.375C12.2631 11.1094 12.1558 11.0649 12.0767 10.9858C11.9976 10.9067 11.9531 10.7994 11.9531 10.6875Z" fill="#999999"/>
</g>
</svg>
