<svg width="24" height="24" viewBox="0 0 24 24" fill="none" xmlns="http://www.w3.org/2000/svg">
<path d="M16.4744 5.40783L18.5924 7.52483M17.8364 3.54283L12.1094 9.26983C11.8135 9.56533 11.6116 9.94181 11.5294 10.3518L11.0004 12.9998L13.6484 12.4698C14.0584 12.3878 14.4344 12.1868 14.7304 11.8908L20.4574 6.16383C20.6295 5.99173 20.766 5.78742 20.8591 5.56256C20.9523 5.33771 21.0002 5.09671 21.0002 4.85333C21.0002 4.60994 20.9523 4.36895 20.8591 4.14409C20.766 3.91923 20.6295 3.71492 20.4574 3.54283C20.2853 3.37073 20.081 3.23421 19.8561 3.14108C19.6312 3.04794 19.3902 3 19.1469 3C18.9035 3 18.6625 3.04794 18.4376 3.14108C18.2128 3.23421 18.0085 3.37073 17.8364 3.54283Z" stroke="white" stroke-width="1.5" stroke-linecap="round" stroke-linejoin="round"/>
<path d="M19.0004 15V18C19.0004 18.5304 18.7897 19.0391 18.4146 19.4142C18.0395 19.7893 17.5308 20 17.0004 20H6.00037C5.46993 20 4.96123 19.7893 4.58615 19.4142C4.21108 19.0391 4.00037 18.5304 4.00037 18V7C4.00037 6.46957 4.21108 5.96086 4.58615 5.58579C4.96123 5.21071 5.46993 5 6.00037 5H9.00037" stroke="white" stroke-width="1.5" stroke-linecap="round" stroke-linejoin="round"/>
</svg>
