<svg width="53" height="53" viewBox="0 0 53 53" fill="none" xmlns="http://www.w3.org/2000/svg">
<g id="Layer" clip-path="url(#clip0_117_1150)">
<path id="Vector" d="M7.56161 12.8501C7.56898 11.5876 7.57951 10.3239 7.58162 9.06133C7.58478 6.81439 7.57846 4.5685 7.58478 2.32156C7.58794 1.25711 8.27887 0.538345 9.33213 0.483542C9.4543 0.477218 9.57753 0.479326 9.70076 0.479326C20.8568 0.479326 32.0139 0.479326 43.17 0.479326C44.3138 0.479326 44.9331 0.872435 45.2206 1.74929C45.3007 1.99274 45.287 2.23409 45.287 2.47754C45.2902 5.74256 45.2881 9.00653 45.2902 12.2715C45.2902 12.4644 45.3028 12.6562 45.3102 12.8491C45.4439 13.121 45.4977 13.4045 45.4977 13.7101C45.4924 16.5799 45.4945 19.4508 45.4955 22.3206C45.4955 22.5314 45.4787 22.7401 45.4366 22.9445C45.4071 23.2554 45.1859 23.4325 44.9626 23.6064C40.3114 27.2213 35.6582 30.8341 31.0038 34.4459C30.5815 34.7736 30.2244 35.2142 29.6641 35.3417C29.3882 35.3016 29.1965 35.1098 28.9879 34.9549C27.0457 33.5195 25.8598 33.5226 23.9028 34.9686C23.6932 35.1235 23.4963 35.309 23.2193 35.3438C22.9717 35.3364 22.8064 35.1699 22.6273 35.0308C17.7508 31.2515 12.8879 27.4542 8.00608 23.6812C7.75751 23.4883 7.48683 23.3102 7.43838 22.9572C7.38466 22.7148 7.37729 22.4703 7.37729 22.2247C7.37834 19.4223 7.38045 16.621 7.37518 13.8187C7.37518 13.4804 7.39941 13.1547 7.56161 12.8523V12.8501Z" fill="white"/>
<path id="Vector_2" d="M23.1761 35.2658C23.57 34.9791 23.9597 34.6861 24.3578 34.4058C25.6681 33.4826 27.2501 33.49 28.5529 34.4258C28.9353 34.6998 29.3071 34.9876 29.6841 35.269C29.9295 35.1983 30.0728 35.3796 30.2339 35.5008C36.9347 40.5617 43.6039 45.6647 50.3058 50.7246C50.627 50.967 50.9388 51.2241 51.259 51.4686C51.4106 51.5846 51.577 51.6963 51.5886 51.9176C51.0188 52.4888 50.2994 52.6511 49.5295 52.6511C43.9357 52.6532 38.3419 52.6522 32.748 52.6522C22.9633 52.6522 13.1776 52.6522 3.39284 52.6522C2.60395 52.6522 1.86668 52.5015 1.28107 51.9176C1.3095 51.633 1.54649 51.5171 1.73713 51.3727C4.79788 49.0489 7.85547 46.7229 10.9173 44.4C14.7469 41.4944 18.5755 38.5856 22.404 35.68C22.6379 35.5029 22.8475 35.269 23.1771 35.2658H23.1761Z" fill="#B6C7EE"/>
<path id="Vector_3" d="M23.1761 35.2658C21.5815 36.4862 19.99 37.7109 18.3912 38.926C14.6511 41.7695 10.9068 44.6077 7.16455 47.449C5.2034 48.9382 3.24224 50.4284 1.28108 51.9176C0.54802 51.3011 0.347902 50.4748 0.347902 49.5674C0.347902 44.2725 0.347902 38.9777 0.347902 33.6828C0.347902 28.9666 0.344742 24.2503 0.352115 19.534C0.352115 18.907 0.37318 18.2704 0.826079 17.7582C1.15891 17.8204 1.34955 18.0965 1.59285 18.2852C3.41813 19.6964 5.24026 21.1107 7.05923 22.5303C7.28568 22.7074 7.46684 22.9066 7.59217 23.1616C12.7868 27.197 17.9804 31.2325 23.175 35.2679L23.1761 35.2658Z" fill="#DBE4F7"/>
<path id="Vector_4" d="M51.5897 51.9176C49.2641 50.1565 46.9375 48.3965 44.6129 46.6333C40.7991 43.7403 36.9863 40.8463 33.1757 37.9501C32.0076 37.0617 30.848 36.1637 29.6841 35.27C34.883 31.2335 40.0808 27.1981 45.2797 23.1616C45.4008 22.9045 45.5851 22.7063 45.8105 22.5293C47.6779 21.0612 49.5738 19.6289 51.4412 18.1619C51.6381 18.0069 51.8267 17.7824 52.1342 17.8942C52.4786 18.3358 52.5144 18.8669 52.5155 19.3854C52.5229 29.4977 52.5229 39.61 52.5176 49.7223C52.5176 50.576 52.2743 51.3453 51.5886 51.9187L51.5897 51.9176Z" fill="#DBE4F7"/>
<path id="Vector_5" d="M52.1342 17.8921C51.1705 18.4696 50.3468 19.2326 49.4526 19.904C48.0412 20.9632 46.6678 22.0719 45.2786 23.1606C45.2828 19.9335 45.288 16.7054 45.2933 13.4783C45.2933 13.2685 45.3028 13.0578 45.3081 12.848C47.2513 14.1802 49.1946 15.5134 51.1378 16.8445C51.5444 17.1238 51.9225 17.4283 52.1342 17.8921Z" fill="#E7EDFA"/>
<path id="Vector_6" d="M7.5932 23.1595C5.47616 21.5144 3.35702 19.8713 1.24419 18.2209C1.08304 18.0944 0.964026 17.9131 0.82605 17.7572C1.01037 17.3598 1.34846 17.1122 1.69393 16.875C3.64877 15.5313 5.60571 14.1918 7.5616 12.8501C7.56686 16.0235 7.57108 19.1979 7.5774 22.3712C7.5774 22.6336 7.58793 22.8971 7.5932 23.1595Z" fill="#E7EDFA"/>
<path id="Vector_7" d="M30.0001 12.5171C30.0075 12.4043 30.0117 12.2863 30.0243 12.1693C30.0822 11.6034 30.4751 11.2324 30.9838 11.2608C31.482 11.2893 31.8085 11.6518 31.8106 12.2273C31.8191 14.1401 31.798 16.054 31.8201 17.9669C31.8391 19.5878 33.3905 20.6617 34.8651 20.0916C35.7098 19.7649 36.2332 19.1199 36.2996 18.2335C36.4976 15.5745 36.0468 13.0672 34.4427 10.8445C32.1045 7.60588 28.0042 6.09351 24.0661 7.0473C20.2206 7.97896 17.2126 11.264 16.6575 15.1382C15.8855 20.5247 19.4139 25.4465 24.7581 26.3929C26.932 26.7786 29.0153 26.4351 30.9838 25.4233C31.1239 25.3516 31.2587 25.2642 31.4041 25.2062C31.877 25.0165 32.3752 25.183 32.5869 25.5898C32.8112 26.0198 32.6617 26.531 32.1845 26.806C31.0828 27.4426 29.9021 27.88 28.6509 28.1097C22.2945 29.2733 16.3594 25.3116 14.9976 19.0008C13.6104 12.5719 18.0246 6.16518 24.5569 5.12497C31.0354 4.09319 37.0411 8.49011 37.9901 14.9822C38.1723 16.2321 38.2502 17.5063 38.0175 18.7563C37.7131 20.3909 36.7051 21.4659 35.1073 21.8832C33.4685 22.3111 32.0466 21.8368 30.9596 20.5268C30.6752 20.1843 30.5731 20.0905 30.2118 20.4583C28.4781 22.2226 25.7018 22.5366 23.63 21.2519C21.4803 19.9198 20.5303 17.364 21.3002 14.9885C22.068 12.6183 24.362 11.0711 26.853 11.2703C27.9062 11.3546 28.8647 11.7214 29.7083 12.3717C29.7873 12.4328 29.8453 12.5392 30.0001 12.515V12.5171Z" fill="#1249C8"/>
<path id="Vector_8" d="M26.4433 20.2275C24.4506 20.2338 22.8601 18.6635 22.8486 16.6801C22.838 14.666 24.4274 13.0514 26.4244 13.0504C28.4066 13.0504 30.0117 14.6376 30.0191 16.6084C30.0275 18.6319 28.4571 20.2201 26.4433 20.2275Z" fill="#EBEBEB"/>
</g>
<defs>
<clipPath id="clip0_117_1150">
<rect width="52.1739" height="52.1739" fill="white" transform="translate(0.3479 0.478271)"/>
</clipPath>
</defs>
</svg>
