<svg width="17" height="16" viewBox="0 0 17 16" fill="none" xmlns="http://www.w3.org/2000/svg">
<g id="lucide:fuel" clip-path="url(#clip0_193_4500)">
<path id="Vector" d="M2.94879 14.6663H10.926M3.61356 5.99967H10.2612M10.2612 14.6663V2.66634C10.2612 2.31272 10.1212 1.97358 9.87182 1.72353C9.62248 1.47348 9.28431 1.33301 8.9317 1.33301H4.94309C4.59048 1.33301 4.25231 1.47348 4.00297 1.72353C3.75363 1.97358 3.61356 2.31272 3.61356 2.66634V14.6663M10.2612 8.66634H11.5908C11.9434 8.66634 12.2816 8.80682 12.5309 9.05687C12.7802 9.30691 12.9203 9.64605 12.9203 9.99967V11.333C12.9203 11.6866 13.0604 12.0258 13.3097 12.2758C13.5591 12.5259 13.8972 12.6663 14.2498 12.6663C14.6025 12.6663 14.9406 12.5259 15.19 12.2758C15.4393 12.0258 15.5794 11.6866 15.5794 11.333V6.55301C15.5795 6.37707 15.5449 6.20284 15.4776 6.04036C15.4103 5.87789 15.3116 5.73038 15.1872 5.60634L12.9203 3.33301" stroke="#737373" stroke-linecap="round" stroke-linejoin="round"/>
</g>
<defs>
<clipPath id="clip0_193_4500">
<rect width="15.9544" height="16" fill="white" transform="translate(0.954498)"/>
</clipPath>
</defs>
</svg>
