<svg width="24" height="24" viewBox="0 0 24 24" fill="none" xmlns="http://www.w3.org/2000/svg">
<g id="iconamoon:home">
<path id="Vector" d="M20 9.99979C20 9.73457 19.8946 9.48022 19.7071 9.29268C19.5196 9.10514 19.2652 8.99979 19 8.99979C18.7348 8.99979 18.4804 9.10514 18.2929 9.29268C18.1054 9.48022 18 9.73457 18 9.99979H20ZM6 9.99979C6 9.73457 5.89465 9.48022 5.70711 9.29268C5.51957 9.10514 5.26522 8.99979 5 8.99979C4.73479 8.99979 4.48043 9.10514 4.2929 9.29268C4.10536 9.48022 4 9.73457 4 9.99979H6ZM20.293 12.7068C20.4816 12.8889 20.7342 12.9897 20.9964 12.9875C21.2586 12.9852 21.5094 12.88 21.6948 12.6946C21.8802 12.5092 21.9854 12.2584 21.9877 11.9962C21.99 11.734 21.8892 11.4814 21.707 11.2928L20.293 12.7068ZM12 2.99979L12.707 2.29279C12.5195 2.10532 12.2652 2 12 2C11.7348 2 11.4805 2.10532 11.293 2.29279L12 2.99979ZM2.293 11.2928C2.19749 11.385 2.12131 11.4954 2.0689 11.6174C2.01649 11.7394 1.98891 11.8706 1.98775 12.0034C1.9866 12.1362 2.0119 12.2678 2.06218 12.3907C2.11246 12.5136 2.18672 12.6253 2.28061 12.7192C2.3745 12.8131 2.48615 12.8873 2.60905 12.9376C2.73195 12.9879 2.86363 13.0132 2.99641 13.012C3.12919 13.0109 3.26041 12.9833 3.38241 12.9309C3.50441 12.8785 3.61476 12.8023 3.707 12.7068L2.293 11.2928ZM7 21.9998H17V19.9998H7V21.9998ZM20 18.9998V9.99979H18V18.9998H20ZM6 18.9998V9.99979H4V18.9998H6ZM21.707 11.2928L12.707 2.29279L11.293 3.70679L20.293 12.7068L21.707 11.2928ZM11.293 2.29279L2.293 11.2928L3.707 12.7068L12.707 3.70679L11.293 2.29279ZM17 21.9998C17.7957 21.9998 18.5587 21.6837 19.1213 21.1211C19.6839 20.5585 20 19.7954 20 18.9998H18C18 19.265 17.8946 19.5194 17.7071 19.7069C17.5196 19.8944 17.2652 19.9998 17 19.9998V21.9998ZM7 19.9998C6.73479 19.9998 6.48043 19.8944 6.2929 19.7069C6.10536 19.5194 6 19.265 6 18.9998H4C4 19.7954 4.31608 20.5585 4.87868 21.1211C5.44129 21.6837 6.20436 21.9998 7 21.9998V19.9998Z" fill="#BFBFBF"/>
</g>
</svg>
