<svg width="18" height="18" viewBox="0 0 18 18" fill="none" xmlns="http://www.w3.org/2000/svg">
<g id="octicon:question-24">
<path id="Vector" d="M8.22739 6.19875C8.07027 6.30677 7.94431 6.45419 7.86214 6.62625C7.79243 6.75423 7.67577 6.85016 7.53673 6.89384C7.39769 6.93751 7.24713 6.92552 7.11676 6.86038C6.98639 6.79524 6.88639 6.68205 6.83782 6.54464C6.78925 6.40724 6.79591 6.25634 6.85639 6.12375C7.00639 5.82225 7.24114 5.50425 7.60414 5.26275C7.97014 5.0175 8.43289 4.875 8.99989 4.875C9.49339 4.875 10.0266 5.02125 10.4504 5.33925C10.6866 5.51195 10.8782 5.73857 11.0092 6.00026C11.1402 6.26195 11.2067 6.55113 11.2034 6.84375C11.2034 7.6185 10.8186 8.13375 10.4331 8.505C10.2906 8.64225 10.1339 8.7735 9.99889 8.886L9.88864 8.97825C9.77296 9.07287 9.66395 9.17536 9.56239 9.285V10.3125C9.56239 10.4617 9.50313 10.6048 9.39764 10.7102C9.29215 10.8157 9.14907 10.875 8.99989 10.875C8.85071 10.875 8.70763 10.8157 8.60214 10.7102C8.49665 10.6048 8.43739 10.4617 8.43739 10.3125V9.20775C8.43739 9.03 8.48764 8.82975 8.62264 8.65575C8.78764 8.44575 8.98714 8.268 9.16114 8.12025L9.29839 8.0055L9.29914 8.00475C9.42814 7.8975 9.54214 7.80225 9.65164 7.69575C9.92764 7.4295 10.0784 7.18875 10.0784 6.84375C10.0817 6.72581 10.0558 6.60888 10.0029 6.5034C9.95003 6.39792 9.87187 6.30717 9.77539 6.23925C9.57439 6.0885 9.28789 6 8.99989 6C8.62939 6 8.38939 6.09075 8.22739 6.19875ZM9.74989 12.75C9.74989 12.9489 9.67087 13.1397 9.53022 13.2803C9.38957 13.421 9.1988 13.5 8.99989 13.5C8.80098 13.5 8.61021 13.421 8.46956 13.2803C8.32891 13.1397 8.24989 12.9489 8.24989 12.75C8.24989 12.5511 8.32891 12.3603 8.46956 12.2197C8.61021 12.079 8.80098 12 8.99989 12C9.1988 12 9.38957 12.079 9.53022 12.2197C9.67087 12.3603 9.74989 12.5511 9.74989 12.75Z" fill="#999999"/>
<path id="Vector_2" d="M8.9998 1.80005C12.9762 1.80005 16.1998 5.02369 16.1998 9.00005C16.1998 12.9764 12.9762 16.2 8.9998 16.2C5.02344 16.2 1.7998 12.9764 1.7998 9.00005C1.7998 5.02369 5.02344 1.80005 8.9998 1.80005ZM2.78162 9.00005C2.78162 10.6492 3.43675 12.2308 4.60289 13.397C5.76902 14.5631 7.35064 15.2182 8.9998 15.2182C10.649 15.2182 12.2306 14.5631 13.3967 13.397C14.5629 12.2308 15.218 10.6492 15.218 9.00005C15.218 7.35088 14.5629 5.76927 13.3967 4.60313C12.2306 3.437 10.649 2.78187 8.9998 2.78187C7.35064 2.78187 5.76902 3.437 4.60289 4.60313C3.43675 5.76927 2.78162 7.35088 2.78162 9.00005Z" fill="#999999"/>
</g>
</svg>
