<svg width="20" height="20" viewBox="0 0 20 20" fill="none" xmlns="http://www.w3.org/2000/svg">
<g id="Icon">
<path id="Vector" d="M5.49514 9.11078L5.49515 9.11081C5.9813 10.0515 6.78654 10.8822 7.69245 11.3683L5.49514 9.11078ZM5.49514 9.11078C4.52686 7.2341 4.67195 4.8801 5.86075 3.17694C6.30799 2.53573 7.0381 1.87628 7.69246 1.52651C8.1868 1.26041 8.88917 1.04046 9.45123 0.979597C11.2707 0.778269 13.0463 1.61043 14.1427 3.17688L14.1428 3.17694C15.3422 4.89525 15.4767 7.31345 14.4799 9.17907L14.4799 9.17916C13.9971 10.0784 13.1849 10.8974 12.3111 11.3683L12.3111 11.3683M5.49514 9.11078L12.3111 11.3683M12.3111 11.3683C10.8933 12.1317 9.11031 12.1317 7.69252 11.3683L12.3111 11.3683ZM13.0955 3.0037L13.0954 3.00361C12.4446 2.33394 11.7079 1.9218 10.8284 1.73223C10.4888 1.6619 9.81963 1.63219 9.48451 1.67647C8.45261 1.81762 7.51027 2.32641 6.76521 3.15259L6.72808 3.11911L6.76521 3.15259C5.45685 4.6032 5.14662 6.77285 5.98921 8.57047C6.59147 9.8543 7.61386 10.7314 8.95699 11.1183C9.11071 11.1612 9.20668 11.1847 9.3433 11.1979C9.48157 11.2113 9.66195 11.2141 9.98417 11.2141L9.98442 11.2141C10.3712 11.216 10.609 11.2084 10.8288 11.1702C11.0482 11.1321 11.2517 11.0632 11.5694 10.9394L11.5696 10.9393C12.6006 10.5423 13.5687 9.59394 14.049 8.50759L14.049 8.5075C14.8813 6.63516 14.5014 4.4433 13.0955 3.0037Z" fill="#999999" stroke="#999999" stroke-width="0.1"/>
<path id="Vector_2" d="M9.80582 2.24236L9.80603 2.24235C10.4759 2.21188 11.1775 2.36791 11.7623 2.68045C12.1822 2.90483 12.4467 3.10742 12.7844 3.46843C13.7917 4.5413 14.1752 6.07357 13.8127 7.55876L13.8126 7.55913C13.7694 7.73031 13.6662 8.00667 13.56 8.25444C13.5067 8.37868 13.4523 8.49675 13.4037 8.59189C13.3562 8.68478 13.3113 8.7619 13.2767 8.79887C13.2172 8.86246 13.1226 8.89243 13.036 8.89503C12.9506 8.89759 12.8555 8.87376 12.801 8.80808C12.7693 8.77019 12.7436 8.73227 12.7278 8.68967C12.7118 8.64631 12.7071 8.601 12.7132 8.54973C12.7249 8.45107 12.7775 8.32604 12.8683 8.14127L12.8685 8.14101C13.2888 7.29811 13.3857 6.47189 13.174 5.57387C12.9833 4.7695 12.4906 4.02072 11.8431 3.55064C10.8286 2.81779 9.60799 2.74 8.4925 3.3473L8.49196 3.34758C8.32915 3.43366 8.22329 3.48703 8.14623 3.51564C8.06688 3.54509 8.01237 3.55049 7.95408 3.53617C7.81645 3.50384 7.7373 3.3841 7.71894 3.25945C7.70056 3.13463 7.74074 2.99283 7.85468 2.90646L7.85493 2.90627C7.94667 2.83763 8.11448 2.74295 8.29249 2.65441C8.47105 2.56559 8.66411 2.48084 8.80786 2.43282C9.10387 2.33371 9.49868 2.25763 9.80582 2.24236Z" fill="#999999" stroke="#999999" stroke-width="0.1"/>
<path id="Vector_3" d="M10.5258 6.15244C10.8247 6.27648 11.0638 6.49448 11.1869 6.75383C11.3205 7.02821 11.3416 7.49428 11.2326 7.80249C11.0919 8.19715 10.8036 8.51288 10.459 8.64443L10.5153 4.88577C10.427 4.81999 10.3723 4.7787 10.3384 4.79169C10.2832 4.81284 10.2832 4.97796 10.2832 5.41574V6.05096L10.5258 6.15244ZM10.5258 6.15244L10.5451 6.10631L10.5451 6.10631C10.8538 6.23444 11.1029 6.46039 11.2319 6.73218C11.3026 6.87736 11.3421 7.06963 11.3507 7.26327C11.3592 7.4572 11.3369 7.6575 11.2797 7.81916L11.2797 7.81928C11.1349 8.22543 10.8372 8.55357 10.4768 8.69114L10.3332 8.74642V8.90378C10.3332 9.03949 10.3099 9.14974 10.2543 9.22707C10.1964 9.30764 10.1093 9.34468 10.0019 9.34468C9.89555 9.34468 9.80904 9.3063 9.75106 9.22753C9.69504 9.15142 9.67057 9.04414 9.67057 8.91505C9.67057 8.86909 9.67053 8.83762 9.66869 8.81434C9.6668 8.79038 9.66339 8.78319 9.66221 8.78135L9.66219 8.78132C9.662 8.78103 9.66183 8.78076 9.6609 8.78014C9.65955 8.77923 9.65651 8.77755 9.65012 8.77546C9.63609 8.77087 9.61596 8.76725 9.58192 8.76135L9.58192 8.76135L9.58142 8.76126C9.41282 8.73025 9.23429 8.66754 9.08415 8.59235C8.93614 8.51824 8.80748 8.42794 8.74718 8.33769L8.74717 8.33769L8.74672 8.337C8.68475 8.24084 8.67033 8.13336 8.70065 8.03779C8.73093 7.94236 8.80449 7.86301 8.91022 7.82021C8.96019 7.7989 9.00399 7.78913 9.06243 7.80322C9.11483 7.81585 9.17787 7.84761 9.26961 7.89756C9.38771 7.96067 9.53752 8.0258 9.60258 8.04339L9.67057 8.0591V7.30259V6.51473L9.41641 6.35655L10.3332 6.01767M10.5258 6.15244L10.545 6.10626L10.3332 6.01767M10.3332 6.01767V5.41574C10.3332 5.23865 10.3332 5.10754 10.3368 5.0124C10.3386 4.96487 10.3412 4.92744 10.345 4.89841C10.3489 4.86874 10.3536 4.85102 10.3579 4.84111C10.358 4.84105 10.358 4.84099 10.358 4.84093C10.3591 4.84133 10.3604 4.84181 10.3618 4.84241C10.3732 4.84715 10.3887 4.85629 10.4103 4.87113C10.4308 4.88519 10.4543 4.90268 10.4821 4.92346L10.4854 4.92587L10.4859 4.92624L10.4859 4.92623C10.5838 4.99735 10.6812 5.03735 10.7731 5.03679C10.8674 5.03621 10.9488 4.99302 11.0115 4.91319C11.0374 4.88116 11.0605 4.84174 11.0773 4.80428C11.0935 4.76821 11.1068 4.72745 11.1068 4.69408C11.1068 4.57713 11.0243 4.46282 10.9084 4.36908C10.7904 4.2736 10.6278 4.191 10.445 4.13871L10.3332 4.10455V3.96114C10.3332 3.83756 10.312 3.73409 10.2637 3.66843L10.2621 3.66632L10.2621 3.66637C10.2165 3.61072 10.146 3.57319 10.0734 3.55631C10.0008 3.5394 9.91937 3.54165 9.85059 3.57382L9.87177 3.61911L9.85075 3.57374C9.78638 3.60355 9.7398 3.65154 9.7105 3.72147C9.68213 3.78915 9.67057 3.87581 9.67057 3.9837V4.12954L9.52359 4.18499L9.52343 4.18505C9.25734 4.28649 9.04649 4.51074 8.92223 4.78027C8.79789 5.04999 8.75817 5.36932 8.83896 5.66569L8.83903 5.66594C8.87937 5.81097 8.93956 5.93224 9.03308 6.04364C9.12607 6.15442 9.25042 6.25351 9.41636 6.35651L10.3332 6.01767ZM10.6573 7.56997L10.6573 7.56997L10.6574 7.5696C10.6848 7.48189 10.6918 7.37069 10.68 7.2634C10.6683 7.15599 10.6384 7.05884 10.5972 6.99646C10.5554 6.93851 10.4667 6.85785 10.3967 6.82048L10.3967 6.82048L10.3963 6.82022L10.3332 6.78563V7.37776C10.3332 7.59541 10.3367 7.76353 10.3428 7.87686C10.3451 7.92007 10.3478 7.95461 10.3506 7.98059C10.3567 7.9756 10.3633 7.9699 10.3703 7.9635C10.4044 7.93247 10.4448 7.88872 10.485 7.83982C10.525 7.79106 10.5639 7.73825 10.5952 7.68955C10.6271 7.63987 10.6488 7.59788 10.6573 7.56997ZM9.65533 5.6875C9.65546 5.6876 9.65558 5.6877 9.6557 5.6878C9.65775 5.66931 9.65969 5.64674 9.66145 5.62053C9.66707 5.53692 9.67057 5.42064 9.67057 5.29171C9.67057 5.16278 9.66707 5.04649 9.66145 4.96289C9.65995 4.94057 9.65832 4.92089 9.6566 4.90412C9.63843 4.92397 9.61797 4.95049 9.59723 4.98133C9.54853 5.05375 9.5032 5.14265 9.48397 5.21096C9.47434 5.24708 9.46692 5.29182 9.46362 5.33412C9.46022 5.37774 9.46164 5.41351 9.46668 5.43371L9.41817 5.44581L9.46665 5.4336C9.47083 5.45018 9.48341 5.47672 9.50423 5.50967C9.5244 5.5416 9.5501 5.57613 9.57714 5.60794C9.60429 5.6399 9.6318 5.66794 9.65533 5.6875Z" fill="#999999" stroke="#999999" stroke-width="0.1"/>
<path id="Vector_4" d="M6.13739 5.57911L6.13735 5.57928C5.95607 6.52918 6.06636 7.43814 6.47516 8.31968C7.01579 9.49063 7.97024 10.2868 9.18128 10.5762C9.39672 10.6284 9.73394 10.6499 10.0657 10.6447C10.3975 10.6395 10.7314 10.6075 10.9398 10.5494L6.13739 5.57911ZM6.13739 5.57911C6.19447 5.28547 6.30471 4.94846 6.43456 4.64528C6.56403 4.34299 6.71494 4.06974 6.85522 3.90613M6.13739 5.57911L6.89324 3.9386M12.4432 9.30594L12.4427 9.30529C12.4095 9.26264 12.3732 9.22796 12.33 9.20646C12.2857 9.18443 12.2379 9.17814 12.1853 9.18605C12.085 9.20113 11.9628 9.26903 11.7985 9.3811C11.458 9.61142 11.1988 9.73698 10.8065 9.85573L10.8058 9.85595L10.8058 9.85596C10.578 9.92863 10.4685 9.94003 9.98446 9.93628L9.98407 9.93628C9.73043 9.93628 9.58478 9.93341 9.46817 9.91971C9.35307 9.90619 9.26531 9.882 9.12747 9.83724L9.11203 9.8848M12.4432 9.30594L7.31168 3.90102M12.4432 9.30594C12.5019 9.38387 12.5251 9.47423 12.5121 9.56443C12.4993 9.65403 12.4514 9.73998 12.3743 9.81213M12.4432 9.30594L12.3743 9.81213M9.11203 9.8848L9.12763 9.83729C8.02186 9.47418 7.20397 8.62617 6.87093 7.48034L6.87088 7.48015C6.56913 6.45689 6.73208 5.34063 7.31143 4.43941C7.39021 4.31882 7.437 4.21449 7.4446 4.11973C7.45249 4.02129 7.41772 3.93926 7.34819 3.86684M9.11203 9.8848C9.38982 9.975 9.47773 9.98628 9.98407 9.98628L9.11203 9.8848ZM7.34819 3.86684C7.34803 3.86667 7.34786 3.8665 7.3477 3.86633L7.31168 3.90102M7.34819 3.86684C7.34835 3.86702 7.3485 3.86719 7.34866 3.86736L7.31168 3.90102M7.34819 3.86684C7.27736 3.78927 7.19278 3.74891 7.10185 3.75726C7.01254 3.76546 6.92863 3.81967 6.85522 3.90613M7.31168 3.90102C7.1851 3.76195 7.03038 3.77698 6.89324 3.9386M6.85522 3.90613C6.85525 3.90611 6.85527 3.90608 6.85529 3.90605L6.89324 3.9386M6.85522 3.90613C6.85519 3.90617 6.85515 3.90621 6.85512 3.90625L6.89324 3.9386M12.3743 9.81213C12.071 10.1015 11.4861 10.3977 10.9398 10.5494L12.3743 9.81213Z" fill="#999999" stroke="#999999" stroke-width="0.1"/>
<path id="Vector_5" d="M0.984194 11.0341L0.984224 11.0341C0.981907 11.0411 0.980908 11.0486 0.980394 11.0528C0.979712 11.0582 0.979102 11.0648 0.978539 11.0722C0.977407 11.087 0.976327 11.1069 0.975284 11.1314C0.973195 11.1805 0.971194 11.2498 0.969296 11.3374C0.965499 11.5128 0.96209 11.7629 0.959232 12.0752C0.953517 12.6998 0.95 13.5738 0.95 14.5981C0.95 16.2817 0.950876 17.1478 0.960119 17.6103C0.969287 18.069 0.986236 18.1393 1.02515 18.2203C1.07065 18.3175 1.14445 18.4119 1.22915 18.4891C1.31378 18.5663 1.41217 18.629 1.50866 18.66L1.50893 18.6601L1.50893 18.6601C1.53685 18.6689 1.58153 18.6754 1.63442 18.6806C1.68871 18.686 1.75589 18.6905 1.83135 18.694C1.98233 18.7011 2.1682 18.7047 2.35378 18.7047C2.53935 18.7047 2.72522 18.7011 2.8762 18.694C2.95166 18.6905 3.01884 18.686 3.07313 18.6806C3.12602 18.6754 3.1707 18.6689 3.19862 18.6601L3.19889 18.66C3.29538 18.629 3.39377 18.5663 3.4784 18.4891C3.56299 18.412 3.63671 18.3178 3.68223 18.2207C3.7401 18.105 3.75755 17.9826 3.75755 17.7667C3.75755 17.6644 3.76002 17.5995 3.7656 17.5615C3.91575 17.634 4.51028 17.9179 5.19446 18.244C5.19448 18.244 5.19451 18.2441 5.19453 18.2441L5.21604 18.1989C5.99666 18.5748 6.73157 18.9093 6.85112 18.9431L0.984194 11.0341ZM0.984194 11.0341L0.984818 11.0324C1.01613 10.9488 1.085 10.8503 1.16309 10.7649C1.24109 10.6796 1.33399 10.6011 1.41785 10.5614L0.984194 11.0341ZM3.5633 10.7851C3.56336 10.7852 3.56343 10.7853 3.56349 10.7854L3.5247 10.8169M3.5633 10.7851L3.70755 11.4623V11.3281C3.70755 11.0951 3.67239 10.9936 3.5247 10.8169M3.5633 10.7851C3.56322 10.785 3.56314 10.785 3.56306 10.7849L3.5247 10.8169M3.5633 10.7851L1.43954 10.6064C1.56261 10.5463 1.68216 10.535 2.35378 10.535C3.22933 10.535 3.31372 10.5576 3.5247 10.8169M3.04755 11.2371L3.04757 11.237C3.05069 11.2406 3.05947 11.253 3.0674 11.307C3.07514 11.3596 3.08113 11.4436 3.08574 11.5816C3.09494 11.857 3.09846 12.3391 3.10198 13.1964L3.10198 13.1964L3.10204 13.2075C3.10727 14.1523 3.10992 14.632 3.12048 14.8849C3.12574 15.0111 3.13307 15.0851 3.14497 15.1332C3.15116 15.1582 3.1589 15.1777 3.16912 15.1947C3.17917 15.2114 3.19048 15.2237 3.19985 15.2337L3.2005 15.2344L3.2005 15.2344C3.25967 15.2953 3.35019 15.3244 3.43571 15.327C3.52113 15.3296 3.61328 15.3061 3.67522 15.247M3.04755 11.2371L3.67526 15.247C3.67525 15.247 3.67523 15.247 3.67522 15.247M3.04755 11.2371L3.04648 11.2357C3.03907 11.2267 3.03188 11.2205 3.01709 11.2147C2.99999 11.2081 2.97231 11.202 2.92318 11.1975C2.82494 11.1883 2.65714 11.1864 2.35378 11.1864C2.03226 11.1864 1.86606 11.1874 1.77182 11.1974C1.72507 11.2024 1.70107 11.2091 1.68629 11.2163C1.67306 11.2227 1.66417 11.2308 1.65008 11.2475C1.64494 11.2537 1.64136 11.2587 1.63765 11.2687C1.6334 11.2801 1.62868 11.299 1.62428 11.3328C1.61545 11.4009 1.60909 11.5194 1.60469 11.7383C1.59591 12.1751 1.59503 13.0023 1.59503 14.6019V17.8863L1.66172 17.9428L1.66172 17.9428L1.66214 17.9431C1.67736 17.9563 1.69054 17.9651 1.7096 17.9722C1.72987 17.9797 1.7589 17.9861 1.80666 17.9908C1.90295 18.0004 2.06268 18.0023 2.35378 18.0023C2.63588 18.0023 2.79599 18.0004 2.89395 17.9917C2.98882 17.9833 3.01604 17.9692 3.03769 17.9512C3.05059 17.9388 3.05753 17.93 3.06365 17.9138C3.07101 17.8942 3.07763 17.8622 3.08282 17.8014C3.09317 17.6802 3.09669 17.4627 3.10198 17.0444C3.10198 17.0444 3.10198 17.0444 3.10198 17.0444L3.10209 17.035C3.10727 16.6068 3.10994 16.3861 3.122 16.2644C3.12807 16.2031 3.13696 16.1608 3.15313 16.128C3.17013 16.0936 3.19329 16.074 3.21434 16.0561C3.27221 16.0059 3.35312 15.9797 3.43103 15.9756C3.50891 15.9714 3.59214 15.9887 3.6535 16.0355L3.65351 16.0355L3.65443 16.0363C3.69406 16.068 3.71615 16.1079 3.7301 16.174C3.74337 16.2368 3.75049 16.3291 3.75749 16.4712C3.75749 16.4712 3.75749 16.4712 3.75749 16.4712L3.77355 16.7872L4.29164 17.0337L4.29176 17.0338C5.54737 17.6353 6.19811 17.946 6.56844 18.1134C6.93794 18.2805 7.02475 18.3033 7.1533 18.3304L7.14297 18.3793M3.04755 11.2371L3.67522 15.247M3.67522 15.247C3.68494 15.2378 3.69548 15.2265 3.70487 15.2106C3.71412 15.1948 3.721 15.1767 3.72644 15.1546C3.73698 15.1117 3.74344 15.0476 3.74784 14.9442C3.75668 14.7361 3.75755 14.3532 3.75755 13.6246V12.1574L4.45509 12.1749C4.45512 12.1749 4.45515 12.1749 4.45519 12.1749C5.23928 12.1974 5.50776 12.242 6.02836 12.4349C6.40422 12.5762 6.5842 12.6686 7.03947 12.9456C7.60291 13.2919 7.87167 13.4229 8.20227 13.5113M8.20227 13.5113C8.28033 13.533 8.52672 13.5739 8.8561 13.622C9.18794 13.6704 9.60852 13.7269 10.0378 13.7795C10.8975 13.885 11.3411 13.9419 11.6028 14.0068C11.7326 14.0389 11.8143 14.0723 11.8786 14.1126C11.943 14.1531 11.9927 14.2022 12.0574 14.2715C12.1422 14.3621 12.2175 14.4854 12.271 14.6145C12.3247 14.7439 12.355 14.875 12.3534 14.9808L12.3534 14.9815C12.3534 15.0293 12.3516 15.0751 12.3491 15.1094C12.3485 15.1179 12.3478 15.1255 12.3471 15.1321C12.3463 15.1322 12.3454 15.1323 12.3445 15.1324C12.3196 15.1348 12.283 15.138 12.2358 15.1419C12.1415 15.1495 12.0059 15.1598 11.8389 15.1717C11.505 15.1957 11.0463 15.2267 10.5436 15.2586C10.0407 15.2906 9.57464 15.3216 9.22857 15.346C9.05556 15.3583 8.91242 15.3688 8.80961 15.3771C8.75823 15.3812 8.71674 15.3847 8.68656 15.3876C8.65932 15.3902 8.63651 15.3927 8.626 15.3951M8.20227 13.5113C8.20217 13.5112 8.20207 13.5112 8.20197 13.5112L8.21545 13.463L8.20254 13.5113C8.20245 13.5113 8.20236 13.5113 8.20227 13.5113ZM8.626 15.3951C8.37983 15.45 8.29924 15.7478 8.45292 15.9545C8.48481 15.9986 8.51636 16.0321 8.56557 16.0514C8.61147 16.0693 8.66784 16.0727 8.74289 16.0727C8.90158 16.0727 9.94148 16.0076 10.9791 15.9372C12.0164 15.8669 13.0595 15.7907 13.2258 15.7678C14.0376 15.6612 14.4142 15.5064 16.2632 14.5182C16.9828 14.1345 17.3718 13.9285 17.5982 13.8206C17.8261 13.712 17.8789 13.7084 17.9312 13.7155L17.9327 13.7157L17.9327 13.7157C18.0096 13.7239 18.0946 13.7608 18.1707 13.8171C18.2466 13.8732 18.3102 13.9461 18.3465 14.0221L18.3465 14.0221C18.3781 14.088 18.3916 14.1965 18.3839 14.3081C18.3763 14.4195 18.3486 14.5206 18.3096 14.5754C18.3094 14.5756 18.3091 14.5759 18.3087 14.5763C18.3068 14.5781 18.3038 14.5808 18.2996 14.5845C18.2911 14.5918 18.279 14.6017 18.2632 14.6142C18.2316 14.6391 18.1869 14.6731 18.1307 14.7151C18.0183 14.7989 17.8608 14.9137 17.6724 15.0494C17.2958 15.3207 16.7967 15.675 16.29 16.0316C15.7833 16.3881 15.2692 16.7467 14.8627 17.0265C14.4546 17.3074 14.1587 17.5062 14.0851 17.546C13.9964 17.5934 13.8482 17.656 13.7594 17.6853C13.7519 17.6876 13.7234 17.6929 13.6697 17.701C13.6176 17.7087 13.5463 17.7185 13.4577 17.7299C13.2806 17.7528 13.0355 17.7823 12.74 17.8166C12.149 17.8852 11.3572 17.9726 10.5063 18.0628C10.5063 18.0628 10.5063 18.0628 10.5063 18.0628L10.4192 18.0718C8.94167 18.2256 8.18941 18.3039 7.7737 18.337C7.56167 18.3539 7.43912 18.3589 7.35332 18.3564C7.269 18.3539 7.21983 18.3443 7.15317 18.3304L7.14297 18.3793M8.626 15.3951C8.6262 15.3951 8.6264 15.3951 8.62661 15.395L8.6374 15.4438L8.62543 15.3953C8.62562 15.3952 8.62581 15.3952 8.626 15.3951ZM7.14297 18.3793C6.87574 18.323 6.7808 18.2816 4.27016 17.0788L13.7747 17.7329C13.6798 17.7629 12.2135 17.9321 10.5116 18.1125L10.4228 18.1217C7.44129 18.432 7.4111 18.4352 7.14297 18.3793ZM18.3916 14.0005C18.3107 13.8314 18.1138 13.6848 17.938 13.666C17.8009 13.6472 17.6778 13.7073 16.2396 14.4741L18.3916 14.0005ZM18.3916 14.0005C18.4655 14.1546 18.4444 14.4741 18.3494 14.6057L18.3916 14.0005ZM18.8122 15.0592L18.7714 15.0304L11.7775 13.3578C12.1783 13.4743 12.6038 13.8389 12.8042 14.2448L12.849 14.2226C12.849 14.2226 12.849 14.2227 12.8491 14.2227C12.9143 14.3545 12.9666 14.5098 12.9981 14.6552C13.0293 14.7989 13.0415 14.9391 13.0222 15.0392L13.0124 15.0986L13.0953 15.0862C13.0953 15.0862 13.0954 15.0862 13.0955 15.0862C13.4832 15.0246 13.7375 14.9681 14.1212 14.808C14.5072 14.647 15.0236 14.3814 15.935 13.8999L17.5806 13.0279L17.5915 13.0221H17.604H17.8923C18.0774 13.0221 18.2371 13.0532 18.3818 13.1219C18.5265 13.1904 18.6532 13.2952 18.7744 13.4382L18.7745 13.4384C18.8833 13.5682 18.9575 13.6944 19.0012 13.8405C19.0448 13.9861 19.0571 14.1484 19.0463 14.349L19.0463 14.3491C19.0375 14.5068 19.0213 14.6255 18.9855 14.7349C18.9495 14.8446 18.8948 14.9422 18.8125 15.0589C18.8124 15.059 18.8123 15.0591 18.8122 15.0592ZM3.70755 12.1061L3.75755 12.1074L3.70755 12.1562V12.1061Z" fill="#999999" stroke="#999999" stroke-width="0.1"/>
</g>
</svg>
