<svg width="36" height="36" viewBox="0 0 36 36" fill="none" xmlns="http://www.w3.org/2000/svg">
<g id="ic:round-login">
<path id="Vector" d="M15.45 11.55C15.311 11.6873 15.2007 11.8508 15.1254 12.031C15.0501 12.2113 15.0113 12.4047 15.0113 12.6C15.0113 12.7953 15.0501 12.9887 15.1254 13.169C15.2007 13.3492 15.311 13.5127 15.45 13.65L18.3 16.5H4.5C3.675 16.5 3 17.175 3 18C3 18.825 3.675 19.5 4.5 19.5H18.3L15.45 22.35C15.311 22.4873 15.2007 22.6508 15.1254 22.831C15.0501 23.0113 15.0113 23.2047 15.0113 23.4C15.0113 23.5953 15.0501 23.7887 15.1254 23.969C15.2007 24.1492 15.311 24.3127 15.45 24.45C16.035 25.035 16.965 25.035 17.55 24.45L22.935 19.065C23.0741 18.9262 23.1844 18.7614 23.2596 18.5799C23.3349 18.3985 23.3737 18.204 23.3737 18.0075C23.3737 17.811 23.3349 17.6165 23.2596 17.4351C23.1844 17.2536 23.0741 17.0888 22.935 16.95L17.55 11.55C17.4127 11.411 17.2492 11.3007 17.069 11.2254C16.8887 11.1501 16.6953 11.1113 16.5 11.1113C16.3047 11.1113 16.1113 11.1501 15.931 11.2254C15.7508 11.3007 15.5873 11.411 15.45 11.55ZM30 28.5H19.5C18.675 28.5 18 29.175 18 30C18 30.825 18.675 31.5 19.5 31.5H30C31.65 31.5 33 30.15 33 28.5V7.5C33 5.85 31.65 4.5 30 4.5H19.5C18.675 4.5 18 5.175 18 6C18 6.825 18.675 7.5 19.5 7.5H30V28.5Z" fill="black"/>
</g>
</svg>
