<svg width="53" height="54" viewBox="0 0 53 54" fill="none" xmlns="http://www.w3.org/2000/svg">
<g id="layer" clip-path="url(#clip0_117_1245)">
<g id="Black">
<path id="Vector" d="M3.2456 0.879517C2.1354 1.28042 1.19996 2.12335 0.665418 3.20271L0.36731 3.81948V27V50.1805L0.665418 50.7973C1.08688 51.6505 1.91953 52.4934 2.76246 52.9149L3.45119 53.2644H15.2213H26.9915L27.6597 52.9354C28.9549 52.2981 29.9006 51.0234 30.1268 49.6151C30.1884 49.1937 30.2296 45.2052 30.2296 38.8421V28.7475H29.3044H28.3895L28.3587 39.1094C28.3278 49.3581 28.3278 49.4609 28.112 49.9235C27.8447 50.4992 27.3307 51.0234 26.7859 51.2701C26.3953 51.4552 25.7991 51.4655 15.2213 51.4655C2.6391 51.4655 3.6465 51.5271 2.85497 50.6431C2.10456 49.8207 2.16624 51.8869 2.16624 27C2.16624 1.97943 2.10456 4.11759 2.86525 3.31578C3.48203 2.67845 3.89321 2.53453 5.209 2.53453H6.35004L6.41172 3.27467C6.50423 4.5185 6.91542 5.20723 7.86114 5.70065L8.3854 5.9782H15.2213H22.0573L22.5404 5.74177C23.4964 5.26891 24.0618 4.28207 24.0618 3.07935V2.53453H25.2234C26.1177 2.53453 26.4672 2.58593 26.7859 2.72985C27.3307 2.97655 27.8447 3.50082 28.112 4.07647C28.3176 4.50822 28.3278 4.74465 28.3587 7.90049L28.3895 11.2722H29.3147H30.2296V8.15748C30.2296 6.45106 30.1782 4.75493 30.1268 4.38486C29.9006 2.96628 28.9652 1.70189 27.6699 1.06455L26.9915 0.735603L15.3755 0.715042C4.36608 0.694485 3.72874 0.694485 3.2456 0.879517ZM22.1909 3.11019C22.1601 3.5111 22.0778 3.73725 21.9134 3.90172L21.6872 4.12787L15.3961 4.15871C10.7908 4.17927 9.03302 4.14843 8.81715 4.06619C8.45736 3.912 8.23121 3.49054 8.23121 2.94572V2.53453H15.2316H22.232L22.1909 3.11019Z" fill="white"/>
<path id="Vector_2" d="M12.5486 19.9585V27H32.748H52.9474V19.9585V12.9169H32.748H12.5486V19.9585ZM51.0971 19.9585V25.1497H32.748H14.3989V19.9585V14.7673H32.748H51.0971V19.9585Z" fill="white"/>
<path id="Vector_3" d="M18.6958 17.3783L18.665 18.3446L17.8632 17.882C17.2773 17.5428 17.0305 17.44 16.9483 17.5222C16.8866 17.5839 16.6605 17.9539 16.4446 18.3343L16.054 19.023L16.8455 19.4753C17.2773 19.722 17.6473 19.9379 17.6679 19.9585C17.6884 19.979 17.3287 20.2052 16.8763 20.4724L16.0437 20.9556L16.2287 21.2743C16.3418 21.4593 16.5577 21.8191 16.7119 22.0966L16.9894 22.5798L17.5754 22.2508C17.894 22.0761 18.2435 21.8705 18.3566 21.7882C18.4697 21.7163 18.593 21.6546 18.6342 21.6546C18.6856 21.6546 18.7164 22.0658 18.7164 22.5798V23.5049H19.6416H20.5564L20.5873 22.5798L20.6181 21.6546L21.4302 22.1172C21.8722 22.3742 22.2526 22.5695 22.2629 22.5592C22.8282 21.6032 23.1366 21.0173 23.0852 20.935C23.0544 20.8836 22.6843 20.6472 22.2526 20.4108L21.4713 19.9893L22.2834 19.5267C22.7254 19.28 23.0955 19.0539 23.1263 19.0333C23.188 18.9716 22.2937 17.44 22.2012 17.44C22.1498 17.44 21.7694 17.6456 21.3377 17.9025L20.5667 18.3548V17.3886V16.412H19.6416H18.7267L18.6958 17.3783Z" fill="white"/>
<path id="Vector_4" d="M27.4541 17.3783V18.3548L26.6625 17.8923C26.2205 17.6456 25.8299 17.44 25.7888 17.44C25.7168 17.44 24.8842 18.8483 24.8842 18.9819C24.8842 19.0333 25.2337 19.2595 25.6551 19.4959C26.0766 19.7323 26.4055 19.9585 26.3747 20.0099C26.3439 20.0613 26.0252 20.2669 25.6551 20.4622C25.2953 20.6678 24.9664 20.8836 24.9356 20.935C24.8842 21.0173 25.3159 21.8808 25.686 22.4564C25.7579 22.5592 25.9635 22.477 26.57 22.1172C27.0018 21.8602 27.3821 21.6546 27.4027 21.6546C27.4335 21.6546 27.4541 22.0658 27.4541 22.5798V23.5049H28.3792H29.3044V22.5798C29.3044 22.0658 29.3352 21.6546 29.3661 21.6546C29.4072 21.6546 29.695 21.8088 30.0137 22.0041C31.1136 22.662 30.98 22.6723 31.4528 21.8191C31.6893 21.4079 31.8743 21.0275 31.8743 20.9761C31.8743 20.9247 31.5556 20.7089 31.1547 20.493C30.7641 20.2771 30.4146 20.0715 30.394 20.0201C30.3632 19.979 30.6819 19.7426 31.1033 19.4959C31.5248 19.2595 31.8743 19.0127 31.8743 18.9613C31.8743 18.8174 31.0519 17.44 30.9697 17.44C30.9286 17.44 30.5482 17.6456 30.1268 17.8923L29.3558 18.3446L29.3249 17.3783L29.2941 16.412H28.3792H27.4541V17.3783Z" fill="white"/>
<path id="Vector_5" d="M36.1918 17.3372C36.1918 17.8409 36.1609 18.2623 36.1198 18.2623C36.0787 18.2623 35.7395 18.0773 35.3591 17.8511C34.9788 17.625 34.6293 17.44 34.5779 17.44C34.4853 17.44 33.5705 18.9716 33.6321 19.023C33.6527 19.0436 34.033 19.2697 34.4751 19.5267L35.2769 19.9893L34.4442 20.4724C33.9816 20.7294 33.6219 20.9761 33.6424 21.0173C33.7555 21.2743 34.4751 22.4872 34.5265 22.5181C34.5676 22.5386 34.9479 22.3536 35.3694 22.1069L36.1404 21.6649L36.1712 22.5798L36.202 23.5049H37.1169H38.0421V22.5798C38.0421 22.0658 38.0729 21.6546 38.1243 21.6546C38.1654 21.6546 38.5458 21.8602 38.9672 22.1172C39.8513 22.6312 39.7382 22.6826 40.3858 21.5415L40.7148 20.9556L39.8821 20.4724L39.0495 19.979L39.8616 19.5164C40.3036 19.2595 40.6737 19.0436 40.6942 19.0333C40.7662 18.9716 39.841 17.4502 39.7382 17.4502C39.6868 17.4502 39.2859 17.6558 38.8645 17.9025L38.0935 18.3548L38.0626 17.3886L38.0318 16.412H37.1169H36.1918V17.3372Z" fill="white"/>
<path id="Vector_6" d="M45.0116 17.3783L44.9808 18.3446L44.179 17.882C43.593 17.5428 43.3463 17.44 43.2641 17.5222C43.2024 17.5839 42.9763 17.9539 42.7604 18.3343L42.3698 19.023L43.1613 19.4753C43.593 19.722 43.9631 19.9379 43.9837 19.9585C44.0042 19.979 43.6444 20.2052 43.1921 20.4724L42.3595 20.9556L42.5445 21.2743C42.6576 21.4593 42.8735 21.8191 43.0277 22.0966L43.3052 22.5798L43.8912 22.2508C44.2098 22.0761 44.5593 21.8705 44.6724 21.7882C44.7855 21.7163 44.9088 21.6546 44.95 21.6546C45.0014 21.6546 45.0322 22.0658 45.0322 22.5798V23.5049H45.9574H46.8722L46.9031 22.5798L46.9339 21.6546L47.746 22.1172C48.188 22.3742 48.5684 22.5695 48.5787 22.5592C49.144 21.6032 49.4524 21.0173 49.401 20.935C49.3702 20.8836 49.0001 20.6472 48.5684 20.4108L47.7871 19.9893L48.5992 19.5267C49.0412 19.28 49.4113 19.0539 49.4421 19.0333C49.5038 18.9716 48.6095 17.44 48.517 17.44C48.4656 17.44 48.0852 17.6456 47.6535 17.9025L46.8825 18.3548V17.3886V16.412H45.9574H45.0425L45.0116 17.3783Z" fill="white"/>
<path id="Vector_7" d="M3.81104 43.653V44.5781H15.2214H26.6318V43.653V42.7278H15.2214H3.81104V43.653Z" fill="white"/>
<path id="Vector_8" d="M14.0083 45.6678C13.0215 46.1612 12.4767 47.148 12.5795 48.2788C12.6412 48.947 12.8468 49.4198 13.3093 49.903C13.8542 50.4889 14.3476 50.6945 15.2213 50.6945C16.1465 50.6945 16.6399 50.4683 17.2464 49.7796C18.3875 48.4844 18.0071 46.4901 16.4652 45.6883C15.7148 45.2874 14.7793 45.2874 14.0083 45.6678ZM15.7867 47.5078C16.1259 47.847 16.1157 48.2274 15.7456 48.5974C15.3653 48.9778 15.0774 48.9778 14.6868 48.5872C14.4298 48.3199 14.3887 48.2171 14.4401 47.9396C14.5737 47.2714 15.3139 47.0247 15.7867 47.5078Z" fill="white"/>
</g>
</g>
<defs>
<clipPath id="clip0_117_1245">
<rect width="52.6316" height="52.6316" fill="white" transform="translate(0.315918 0.684204)"/>
</clipPath>
</defs>
</svg>
