<svg width="25" height="25" viewBox="0 0 25 25" fill="none" xmlns="http://www.w3.org/2000/svg">
<g id="PDF Icon">
<path id="Vector" d="M19.872 0.064209L24.9357 5.24282V24.9358H6.01953V25.0001H25.0003V5.308L19.872 0.064209Z" fill="#999999"/>
<path id="Vector_2" d="M19.8089 0H5.95459V24.9359H24.9354V5.24379L19.8089 0Z" fill="#E6E6E6"/>
<path id="Vector_3" d="M5.81546 1.33936H0V7.43493H18.2928V1.33936H5.81546Z" fill="#737373"/>
<path id="Vector_4" d="M18.39 7.33124H0.118164V1.2312H18.39V7.33124Z" fill="#D7263D"/>
<path id="Vector_5" d="M17.7614 16.2992C17.7614 16.2992 20.6628 15.7831 20.6628 16.7555C20.6628 17.7278 18.8654 17.3323 17.7614 16.2992ZM15.6164 16.3733C15.1554 16.4733 14.7062 16.6196 14.2758 16.8099L14.6398 16.0064C15.0039 15.2028 15.3816 14.1072 15.3816 14.1072C15.816 14.8245 16.3214 15.498 16.8905 16.118C16.4613 16.1808 16.036 16.2666 15.6164 16.3751V16.3733ZM14.4678 10.5697C14.4678 9.72239 14.7472 9.49114 14.9647 9.49114C15.1823 9.49114 15.4271 9.59381 15.4353 10.3295C15.3644 11.0693 15.2065 11.7986 14.9647 12.5028C14.6336 11.9115 14.4622 11.247 14.4669 10.5724L14.4678 10.5697ZM10.2368 19.9591C9.34677 19.4367 12.1034 17.8287 12.6031 17.7769C12.6003 17.7778 11.1688 20.5055 10.2368 19.9591ZM21.5101 16.8707C21.501 16.7814 21.4191 15.793 19.6262 15.8349C18.8789 15.8231 18.132 15.8748 17.3938 15.9894C16.6787 15.2826 16.0629 14.4854 15.5627 13.6188C15.8778 12.7255 16.0685 11.7944 16.1297 10.851C16.1033 9.77953 15.8421 9.16524 15.0048 9.17417C14.1675 9.1831 14.0456 9.90185 14.1557 10.9715C14.2635 11.6903 14.467 12.3921 14.7609 13.059C14.7609 13.059 14.3741 14.2403 13.8626 15.4153C13.3512 16.5903 13.0017 17.2064 13.0017 17.2064C12.1123 17.4904 11.275 17.9124 10.5217 18.4564C9.77178 19.1412 9.4669 19.6671 9.86188 20.193C10.2023 20.6466 11.3936 20.7493 12.4584 19.3805C13.0241 18.6735 13.541 17.9302 14.0055 17.1555C14.0055 17.1555 15.6291 16.7189 16.1342 16.5992C16.6393 16.4796 17.25 16.3849 17.25 16.3849C17.25 16.3849 18.7325 17.8483 20.1623 17.7966C21.592 17.7448 21.5228 16.9582 21.5137 16.8724" fill="#D7263D"/>
<path id="Vector_6" d="M19.7388 0.0686035V5.31239H24.8653L19.7388 0.0686035Z" fill="#999999"/>
<path id="Vector_7" d="M19.8096 0V5.24379H24.9361L19.8096 0Z" fill="#E6E6E6"/>
<path id="Vector_8" d="M6.10697 2.1937H4.91748V6.47944H5.85669V5.03479L6.06419 5.04639C6.26493 5.04301 6.46378 5.00773 6.65302 4.94193C6.81892 4.88592 6.97154 4.79754 7.10169 4.68211C7.23312 4.57183 7.33656 4.43304 7.40384 4.27675C7.49512 4.01647 7.52772 3.73987 7.4994 3.46603C7.49372 3.27041 7.45876 3.07667 7.39565 2.89102C7.3382 2.75701 7.25294 2.6362 7.1453 2.53628C7.03765 2.43636 6.90999 2.35953 6.77042 2.31066C6.6492 2.26738 6.5239 2.23598 6.39637 2.21691C6.30029 2.20237 6.20327 2.19461 6.10606 2.1937M5.93405 4.24192H5.85305V2.92049H6.02961C6.10713 2.915 6.18492 2.92668 6.25722 2.95465C6.32953 2.98262 6.3945 3.02618 6.44734 3.08209C6.55684 3.22586 6.61534 3.40085 6.61388 3.58031C6.61388 3.79996 6.61389 3.99907 6.41185 4.13925C6.26629 4.21778 6.10062 4.25315 5.93496 4.24103M9.27498 2.18209C9.17396 2.18209 9.07567 2.18923 9.00651 2.19191L8.79264 2.19727H8.08277V6.48301H8.91823C9.23751 6.4916 9.5554 6.43851 9.8538 6.32676C10.094 6.2333 10.3067 6.08263 10.4727 5.88836C10.6341 5.69234 10.7499 5.46411 10.8121 5.21961C10.8836 4.9427 10.9185 4.65792 10.9159 4.37228C10.9335 4.03492 10.9069 3.69673 10.8367 3.36603C10.7701 3.1226 10.6453 2.89825 10.4727 2.71156C10.3372 2.56081 10.1715 2.43921 9.98576 2.35441C9.8263 2.28201 9.65855 2.22866 9.48612 2.19548C9.41756 2.18437 9.34811 2.17929 9.27862 2.1803M9.11299 5.69551H9.02198V2.95977H9.03381C9.22143 2.93859 9.41127 2.97181 9.57986 3.05531C9.70333 3.15203 9.80393 3.27388 9.87473 3.41245C9.95114 3.55829 9.99518 3.71835 10.004 3.8821C10.0122 4.07853 10.004 4.23925 10.004 4.37228C10.0077 4.52553 9.99762 4.6788 9.97393 4.83032C9.94588 4.98588 9.89403 5.13639 9.82013 5.27675C9.73648 5.40725 9.62347 5.51721 9.48977 5.59818C9.37748 5.66943 9.24451 5.70267 9.11117 5.69283M13.7317 2.19727H11.5202V6.48301H12.4557V4.783H13.6389V3.98657H12.4557V2.9937H13.7299V2.19727" fill="white"/>
</g>
</svg>
