<svg width="18" height="18" viewBox="0 0 18 18" fill="none" xmlns="http://www.w3.org/2000/svg">
<g id="guidance:car-rental" clip-path="url(#clip0_426_6410)">
<path id="Vector" d="M3.74977 13.875H5.24977M6.74977 13.875H11.2498M12.7498 13.875H14.2498M3.18727 11.1705C4.45552 11.3805 6.63052 11.625 8.99977 11.625C11.3698 11.625 13.544 11.3805 14.8123 11.1705M3.18727 11.1705C3.80395 9.92736 4.12481 8.55845 4.12477 7.17075V7.125H13.8748V7.17C13.8748 8.56875 14.2003 9.936 14.8123 11.1705M3.18727 11.1705C2.85575 11.838 2.44259 12.4618 1.95727 13.0275L1.87402 13.125V17.625H3.56152L3.61777 17.535C3.88745 17.1035 4.26243 16.7477 4.70747 16.5011C5.1525 16.2544 5.65296 16.125 6.16177 16.125H11.8363C12.3451 16.125 12.8455 16.2544 13.2906 16.5011C13.7356 16.7477 14.1106 17.1035 14.3803 17.535L14.4365 17.625H16.124V13.125L16.0408 13.0275C15.5559 12.4616 15.1438 11.8379 14.8123 11.1705M6.37477 2.625H7.12477M11.2498 3.75V2.625M9.74977 3.75V2.625M8.69977 3.75C8.45212 4.17894 8.06985 4.51419 7.61225 4.70373C7.15465 4.89327 6.6473 4.92653 6.16887 4.79833C5.69045 4.67014 5.26769 4.38766 4.96617 3.99471C4.66465 3.60176 4.50122 3.1203 4.50122 2.625C4.50122 2.1297 4.66465 1.64824 4.96617 1.25529C5.26769 0.862338 5.69045 0.579861 6.16887 0.451668C6.6473 0.323474 7.15465 0.356728 7.61225 0.546272C8.06985 0.735816 8.45212 1.07106 8.69977 1.5H12.3095C12.5698 1.869 12.9208 2.16375 13.3295 2.3565L13.4998 2.4375V2.8125L13.328 2.8935C12.9198 3.08616 12.5684 3.38123 12.308 3.75H8.69977Z" stroke="#999999"/>
</g>
<defs>
<clipPath id="clip0_426_6410">
<rect width="18" height="18" fill="white"/>
</clipPath>
</defs>
</svg>
