<svg width="18" height="18" viewBox="0 0 18 18" fill="none" xmlns="http://www.w3.org/2000/svg">
<g id="Group">
<path id="Vector" d="M6.25394 5.99977L6.51417 5.96204L6.63055 5.72625L8.7703 1.39125L8.77045 1.39096C8.79108 1.34909 8.82302 1.31384 8.86265 1.28918C8.90228 1.26453 8.94802 1.25146 8.9947 1.25146C9.04137 1.25146 9.08711 1.26453 9.12674 1.28918C9.16638 1.31384 9.19832 1.34909 9.21895 1.39096L9.21906 1.39119L11.3581 5.72619L11.4744 5.96199L11.7346 5.99976L16.5196 6.69426L16.5198 6.69428C16.5635 6.70061 16.6048 6.71843 16.6394 6.74591L16.9503 6.35433L16.6394 6.74591C16.674 6.77339 16.7007 6.80955 16.7168 6.85071L17.1825 6.66874L16.7168 6.85072C16.7329 6.89187 16.7378 6.93656 16.731 6.98023C16.7247 7.02023 16.7089 7.05807 16.6848 7.09052L16.6488 7.12973L13.191 10.4949L13.0024 10.6784L13.0469 10.9378L13.8652 15.704L13.8652 15.7042C13.8727 15.7479 13.8685 15.7929 13.8529 15.8344C13.8373 15.8759 13.811 15.9126 13.7766 15.9405C13.7422 15.9685 13.701 15.9869 13.6571 15.9937C13.6167 15.9999 13.5754 15.9962 13.5368 15.9828L13.4901 15.9613L9.23229 13.7176L8.99946 13.5949L8.76652 13.7174L4.48702 15.9674L4.48682 15.9675C4.44762 15.9881 4.40363 15.998 4.35936 15.996C4.31509 15.9941 4.27214 15.9804 4.23491 15.9564C4.19767 15.9323 4.16748 15.8989 4.14744 15.8594L3.70153 16.0856L4.14744 15.8594C4.12901 15.823 4.11976 15.7828 4.12042 15.7422L4.12646 15.6911L4.94175 10.9377L4.98623 10.6784L4.7977 10.4949L1.3312 7.12065L1.33074 7.1202C1.29899 7.08938 1.27599 7.05069 1.26409 7.00807C1.25219 6.96545 1.25182 6.92044 1.263 6.87764L0.779243 6.75124L1.263 6.87763C1.27419 6.83483 1.29653 6.79575 1.32776 6.7644L0.973516 6.41154L1.32776 6.7644C1.35645 6.7356 1.3917 6.71426 1.43041 6.70218L1.483 6.69148L6.25394 5.99977Z" stroke="#999999"/>
</g>
</svg>
