<svg width="14" height="14" viewBox="0 0 14 14" fill="none" xmlns="http://www.w3.org/2000/svg">
<g id="Group">
<path id="Vector" fill-rule="evenodd" clip-rule="evenodd" d="M7.00013 1C7.30099 1 7.59756 1.02229 7.88642 1.06514L8.32185 2.38429C8.70327 2.49314 9.06585 2.64829 9.40185 2.84371L10.6533 2.24029C11.0964 2.58057 11.4907 2.98171 11.8233 3.43086L11.1976 4.67114C11.387 5.01057 11.5361 5.37571 11.6381 5.75971L12.9496 6.21657C13.0218 6.77115 13.0169 7.33306 12.935 7.88629L11.6158 8.32171C11.5077 8.69925 11.3534 9.06199 11.1564 9.40171L11.7598 10.6531C11.4191 11.0964 11.0184 11.4902 10.5693 11.8231L9.32899 11.1974C8.98589 11.389 8.6202 11.537 8.24042 11.638L7.78356 12.9494C7.22899 13.0217 6.66708 13.0168 6.11385 12.9349L5.67842 11.6157C5.30088 11.5076 4.93814 11.3533 4.59842 11.1563L3.34699 11.7597C2.90372 11.419 2.50996 11.0183 2.17699 10.5691L2.8027 9.32886C2.61157 8.98553 2.46359 8.6199 2.36213 8.24028L1.0507 7.78257C0.978526 7.22828 0.98343 6.66666 1.06527 6.11371L2.38442 5.67829C2.49327 5.29686 2.64842 4.93429 2.84385 4.59829L2.24042 3.34686C2.58116 2.90359 2.98185 2.50983 3.43099 2.17686L4.67128 2.80257C5.01438 2.61097 5.38006 2.46297 5.75985 2.362L6.21756 1.05057C6.47705 1.01681 6.73846 0.99992 7.00013 1Z" stroke="#999999" stroke-linecap="round" stroke-linejoin="round"/>
<path id="Vector_2" d="M7.00014 9.57132C8.4203 9.57132 9.57157 8.42006 9.57157 6.9999C9.57157 5.57973 8.4203 4.42847 7.00014 4.42847C5.57998 4.42847 4.42871 5.57973 4.42871 6.9999C4.42871 8.42006 5.57998 9.57132 7.00014 9.57132Z" stroke="#999999" stroke-linecap="round" stroke-linejoin="round"/>
</g>
</svg>
