<svg width="18" height="18" viewBox="0 0 18 18" fill="none" xmlns="http://www.w3.org/2000/svg">
<g id="streamline:interface-help-customer-support-1-customer-headset-help-microphone-phone-support" clip-path="url(#clip0_230_2036)">
<path id="Vector" d="M3.85735 9.00004V5.61862C3.86739 4.95394 4.00849 4.29778 4.27256 3.68773C4.53663 3.07768 4.91847 2.52574 5.39622 2.06351C5.87397 1.60129 6.43823 1.23788 7.05667 0.994109C7.67511 0.750334 8.33557 0.630986 9.00021 0.642902C9.66485 0.630986 10.3253 0.750334 10.9438 0.994109C11.5622 1.23788 12.1264 1.60129 12.6042 2.06351C13.0819 2.52574 13.4638 3.07768 13.7279 3.68773C13.9919 4.29778 14.133 4.95394 14.1431 5.61862V9.00004M11.5716 15.75C12.2536 15.75 12.9077 15.4791 13.3899 14.9969C13.8721 14.5147 14.1431 13.8606 14.1431 13.1786V10.2858M11.5716 15.75C11.5716 16.1763 11.4023 16.5851 11.1009 16.8865C10.7995 17.1879 10.3907 17.3572 9.9645 17.3572H8.03592C7.60968 17.3572 7.2009 17.1879 6.8995 16.8865C6.5981 16.5851 6.42878 16.1763 6.42878 15.75C6.42878 15.3238 6.5981 14.915 6.8995 14.6136C7.2009 14.3122 7.60968 14.1429 8.03592 14.1429H9.9645C10.3907 14.1429 10.7995 14.3122 11.1009 14.6136C11.4023 14.915 11.5716 15.3238 11.5716 15.75ZM1.92878 7.07147H3.2145C3.38499 7.07147 3.5485 7.1392 3.66906 7.25976C3.78962 7.38032 3.85735 7.54383 3.85735 7.71433V11.5715C3.85735 11.742 3.78962 11.9055 3.66906 12.026C3.5485 12.1466 3.38499 12.2143 3.2145 12.2143H1.92878C1.58779 12.2143 1.26076 12.0789 1.01964 11.8378C0.778525 11.5966 0.643066 11.2696 0.643066 10.9286V8.35719C0.643066 8.01619 0.778525 7.68917 1.01964 7.44805C1.26076 7.20693 1.58779 7.07147 1.92878 7.07147ZM16.0716 12.2143H14.7859C14.6154 12.2143 14.4519 12.1466 14.3314 12.026C14.2108 11.9055 14.1431 11.742 14.1431 11.5715V7.71433C14.1431 7.54383 14.2108 7.38032 14.3314 7.25976C14.4519 7.1392 14.6154 7.07147 14.7859 7.07147H16.0716C16.4126 7.07147 16.7397 7.20693 16.9808 7.44805C17.2219 7.68917 17.3574 8.01619 17.3574 8.35719V10.9286C17.3574 11.2696 17.2219 11.5966 16.9808 11.8378C16.7397 12.0789 16.4126 12.2143 16.0716 12.2143Z" stroke="#999999" stroke-linecap="round" stroke-linejoin="round"/>
</g>
<defs>
<clipPath id="clip0_230_2036">
<rect width="18" height="18" fill="white"/>
</clipPath>
</defs>
</svg>
