<svg width="18" height="18" viewBox="0 0 18 18" fill="none" xmlns="http://www.w3.org/2000/svg">
<g id="fluent:error-circle-20-regular">
<path id="Vector" d="M8.9998 1.80005C10.9094 1.80005 12.7407 2.55862 14.091 3.90888C15.4412 5.25914 16.1998 7.09049 16.1998 9.00005C16.1998 10.9096 15.4412 12.741 14.091 14.0912C12.7407 15.4415 10.9094 16.2 8.9998 16.2C7.09025 16.2 5.2589 15.4415 3.90864 14.0912C2.55837 12.741 1.7998 10.9096 1.7998 9.00005C1.7998 7.09049 2.55837 5.25914 3.90864 3.90888C5.2589 2.55862 7.09025 1.80005 8.9998 1.80005ZM8.9998 2.70005C8.17248 2.70005 7.35325 2.863 6.5889 3.17961C5.82455 3.49621 5.13004 3.96027 4.54503 4.54528C3.96002 5.13029 3.49597 5.82479 3.17936 6.58914C2.86276 7.35349 2.6998 8.17272 2.6998 9.00005C2.6998 9.82738 2.86276 10.6466 3.17936 11.411C3.49597 12.1753 3.96002 12.8698 4.54503 13.4548C5.13004 14.0398 5.82455 14.5039 6.5889 14.8205C7.35325 15.1371 8.17248 15.3 8.9998 15.3C10.6707 15.3 12.2731 14.6363 13.4546 13.4548C14.6361 12.2733 15.2998 10.6709 15.2998 9.00005C15.2998 7.32919 14.6361 5.72676 13.4546 4.54528C12.2731 3.3638 10.6707 2.70005 8.9998 2.70005ZM8.9998 11.25C9.17883 11.25 9.35051 11.3212 9.4771 11.4478C9.60369 11.5743 9.67481 11.746 9.67481 11.925C9.67481 12.1041 9.60369 12.2758 9.4771 12.4023C9.35051 12.5289 9.17883 12.6 8.9998 12.6C8.82078 12.6 8.6491 12.5289 8.52251 12.4023C8.39592 12.2758 8.3248 12.1041 8.3248 11.925C8.3248 11.746 8.39592 11.5743 8.52251 11.4478C8.6491 11.3212 8.82078 11.25 8.9998 11.25ZM8.9998 5.40005C9.10513 5.40001 9.20713 5.43692 9.28804 5.50435C9.36895 5.57178 9.42365 5.66545 9.4426 5.76905L9.4498 5.85005V9.90005C9.45001 10.0125 9.40811 10.121 9.33235 10.2041C9.25659 10.2872 9.15246 10.3389 9.04047 10.349C8.92847 10.3592 8.81674 10.3271 8.72726 10.259C8.63778 10.1908 8.57704 10.0917 8.55701 9.98105L8.54981 9.90005V5.85005C8.54981 5.7307 8.59722 5.61624 8.68161 5.53185C8.766 5.44746 8.88046 5.40005 8.9998 5.40005Z" fill="#999999" stroke="#999999" stroke-width="0.2"/>
</g>
</svg>
