<svg width="50" height="50" viewBox="0 0 50 50" fill="none" xmlns="http://www.w3.org/2000/svg">
<g id="icons8:upload-2">
<path id="Vector" d="M25 6.25C18.5625 6.25 13.5 11.1406 12.7922 17.3828C11.4307 17.6022 10.1538 18.1856 9.0968 19.0713C8.03975 19.957 7.24183 21.112 6.7875 22.4141C2.94375 23.5219 0 26.95 0 31.25C0 36.4438 4.18125 40.625 9.375 40.625H40.625C45.8187 40.625 50 36.4438 50 31.25C50 28.5 48.6641 26.0375 46.7281 24.3156C46.3656 18.825 41.9859 14.4438 36.475 14.1594C34.5938 9.58281 30.2781 6.25 25 6.25ZM25 9.375C29.3156 9.375 32.7656 12.1406 33.9844 16.0625L34.3281 17.1875H35.9375C40.2422 17.1875 43.75 20.6953 43.75 25V25.7812L44.3844 26.2703C45.15 26.8571 45.7721 27.6104 46.2036 28.4731C46.6351 29.3358 46.8647 30.2854 46.875 31.25C46.875 34.8062 44.1813 37.5 40.625 37.5H9.375C5.81875 37.5 3.125 34.8062 3.125 31.25C3.125 28.0938 5.39063 25.6437 8.25 25.1469L9.27656 24.9516L9.47187 23.9234C9.94062 21.8187 11.8062 20.3125 14.0625 20.3125H15.625V18.75C15.625 13.4844 19.7344 9.375 25 9.375ZM25 18.1156L23.875 19.1891L17.625 25.4391L19.875 27.6891L23.4375 24.1203V34.375H26.5625V24.1203L30.125 27.6859L32.375 25.4359L26.125 19.1859L25 18.1156Z" fill="#000B90"/>
</g>
</svg>
