<svg width="44" height="31" viewBox="0 0 44 31" fill="none" xmlns="http://www.w3.org/2000/svg">
<path d="M22 0C16.335 0 11.88 4.30375 11.2571 9.79688C10.059 9.98994 8.93539 10.5033 8.00518 11.2827C7.07498 12.0622 6.37281 13.0786 5.973 14.2244C2.5905 15.1993 0 18.216 0 22C0 26.5705 3.6795 30.25 8.25 30.25H35.75C40.3205 30.25 44 26.5705 44 22C44 19.58 42.8244 17.413 41.1208 15.8978C40.8018 11.066 36.9476 7.2105 32.098 6.96025C30.4425 2.93288 26.6448 0 22 0ZM22 2.75C25.7978 2.75 28.8338 5.18375 29.9062 8.635L30.2087 9.625H31.625C35.4131 9.625 38.5 12.7119 38.5 16.5V17.1875L39.0583 17.6179C39.732 18.1342 40.2795 18.7971 40.6592 19.5563C41.0389 20.3155 41.2409 21.1512 41.25 22C41.25 25.1295 38.8795 27.5 35.75 27.5H8.25C5.1205 27.5 2.75 25.1295 2.75 22C2.75 19.2225 4.74375 17.0665 7.26 16.6292L8.16337 16.4574L8.33525 15.5526C8.74775 13.7005 10.3895 12.375 12.375 12.375H13.75V11C13.75 6.36625 17.3663 2.75 22 2.75ZM22 10.4417L21.01 11.3864L15.51 16.8864L17.49 18.8664L20.625 15.7259V24.75H23.375V15.7259L26.51 18.8636L28.49 16.8836L22.99 11.3836L22 10.4417Z" fill="#B0B3DD"/>
</svg>
