<svg width="24" height="18" viewBox="0 0 24 18" fill="none" xmlns="http://www.w3.org/2000/svg">
<path d="M23.8208 8.181C22.9428 6.261 19.4998 0 11.9998 0C4.49981 0 1.05681 6.261 0.17881 8.181C0.0609485 8.4383 -6.10352e-05 8.71799 -6.10352e-05 9.001C-6.10352e-05 9.28401 0.0609485 9.5637 0.17881 9.821C1.05681 11.739 4.49981 18 11.9998 18C19.4998 18 22.9428 11.739 23.8208 9.819C23.9384 9.56199 23.9993 9.28265 23.9993 9C23.9993 8.71735 23.9384 8.43801 23.8208 8.181ZM11.9998 16C5.69281 16 2.74981 10.634 1.99981 9.011C2.74981 7.366 5.69281 2 11.9998 2C18.2918 2 21.2358 7.343 21.9998 9C21.2358 10.657 18.2918 16 11.9998 16Z" fill="#374957"/>
<path d="M11.9998 4.00037C11.0109 4.00037 10.0442 4.29361 9.22191 4.84302C8.39966 5.39243 7.7588 6.17332 7.38036 7.08695C7.00192 8.00058 6.90291 9.00591 7.09583 9.97582C7.28876 10.9457 7.76496 11.8366 8.46422 12.5359C9.16349 13.2352 10.0544 13.7114 11.0243 13.9043C11.9942 14.0972 12.9995 13.9982 13.9132 13.6198C14.8268 13.2413 15.6077 12.6005 16.1571 11.7782C16.7065 10.956 16.9998 9.98927 16.9998 9.00037C16.9982 7.67477 16.4709 6.40392 15.5335 5.46659C14.5962 4.52925 13.3254 4.00195 11.9998 4.00037ZM11.9998 12.0004C11.4064 12.0004 10.8264 11.8244 10.333 11.4948C9.8397 11.1651 9.45518 10.6966 9.22812 10.1484C9.00106 9.60024 8.94165 8.99704 9.0574 8.4151C9.17316 7.83315 9.45888 7.2986 9.87844 6.87905C10.298 6.45949 10.8325 6.17377 11.4145 6.05801C11.9964 5.94225 12.5996 6.00166 13.1478 6.22873C13.696 6.45579 14.1645 6.84031 14.4942 7.33366C14.8238 7.827 14.9998 8.40702 14.9998 9.00037C14.9998 9.79602 14.6837 10.5591 14.1211 11.1217C13.5585 11.6843 12.7954 12.0004 11.9998 12.0004Z" fill="#374957"/>
</svg>
