<svg width="35" height="31" viewBox="0 0 35 31" fill="none" xmlns="http://www.w3.org/2000/svg">
<g id="Group">
<path id="Vector" d="M30.725 11.5C31.675 12.35 32.475 13.175 33.075 13.825C33.4896 14.2844 33.7191 14.8812 33.7191 15.5C33.7191 16.1188 33.4896 16.7156 33.075 17.175C30.45 20 24.475 25.5 17.5 25.5H16.5M9.67498 23.325C6.77907 21.7031 4.16242 19.6267 1.92498 17.175C1.51038 16.7156 1.28088 16.1188 1.28088 15.5C1.28088 14.8812 1.51038 14.2844 1.92498 13.825C4.54998 11 10.525 5.5 17.5 5.5C20.2494 5.55746 22.9403 6.3054 25.325 7.675M31.25 1.75L3.74998 29.25" stroke="black" stroke-width="2" stroke-linecap="round" stroke-linejoin="round"/>
<path id="Vector_2" d="M13.975 19.025C13.036 18.0916 12.5056 16.8239 12.5 15.5C12.5 14.1739 13.0268 12.9021 13.9645 11.9645C14.9021 11.0268 16.1739 10.5 17.5 10.5C18.8239 10.5056 20.0916 11.036 21.025 11.975M21.85 18C21.405 18.7608 20.7667 19.3904 20 19.825" stroke="black" stroke-width="2" stroke-linecap="round" stroke-linejoin="round"/>
</g>
</svg>
